<svg width="80.000000" height="80.000000" viewBox="0 0 80 80" fill="none" xmlns="http://www.w3.org/2000/svg" xmlns:xlink="http://www.w3.org/1999/xlink">
	<desc>
			Created with Pixso.
	</desc>
	<defs>
		<clipPath id="clip1_1543">
			<rect id="check-circle" width="80.000000" height="80.000000" fill="white" fill-opacity="0"/>
		</clipPath>
	</defs>
	<rect id="check-circle" width="80.000000" height="80.000000" fill="#FFFFFF" fill-opacity="0"/>
	<g clip-path="url(#clip1_1543)">
		<path id="Vector" d="M73.333 36.9331L73.333 40C73.3291 47.188 71.0015 54.1821 66.6978 59.9395C62.3936 65.6963 56.3442 69.9082 49.4512 71.9463C42.5581 73.9844 35.1909 73.7397 28.4482 71.2485C21.7056 68.7573 15.9487 64.1533 12.0361 58.1235C8.12402 52.0933 6.26562 44.96 6.73877 37.7876C7.21191 30.6152 9.99072 23.7876 14.6606 18.3232C19.3311 12.8594 25.6426 9.05127 32.6538 7.4668C39.665 5.88281 47.0005 6.60742 53.5664 9.5332" stroke="#3BAA35" stroke-opacity="1.000000" stroke-width="3.000000" stroke-linejoin="round" stroke-linecap="round"/>
		<path id="Vector" d="M73.3335 13.3335L40 46.7002L30 36.7002" stroke="#3BAA35" stroke-opacity="1.000000" stroke-width="3.000000" stroke-linejoin="round" stroke-linecap="round"/>
	</g>
</svg>
