<svg width="28.000000" height="32.000000" viewBox="0 0 28 32" fill="none" xmlns="http://www.w3.org/2000/svg" xmlns:xlink="http://www.w3.org/1999/xlink">
	<desc>
			Created with Pixso.
	</desc>
	<defs/>
	<path id="Vector" d="M21.844 10.0488C21.6899 9.47412 22.0261 8.89453 22.5898 8.74316C23.1533 8.59229 23.738 8.93945 23.8884 9.50098L25.8271 16.7368C26.2996 18.5 26.2104 23.6191 26.1013 26.2524L14.0969 29.4688C13.4065 28.6738 12.126 27.1973 11.5342 26.6138C10.6348 25.7212 9.47314 24.6885 8.25488 23.6011C6.63257 22.1602 4.80664 20.5356 3.0708 18.7749C2.61279 18.3237 2.1416 17.666 2.43945 17.1523C2.57397 16.9204 2.80811 16.7456 3.08325 16.6719C3.34521 16.6016 3.6355 16.6357 3.86792 16.7695L9.21924 20.333C9.59497 20.582 10.0981 20.5732 10.479 20.3174C10.8564 20.0483 11.0266 19.5825 10.9077 19.1387L6.80273 3.81836C6.64868 3.24365 6.98486 2.66406 7.54834 2.5127C8.11206 2.36182 8.69653 2.70898 8.84717 3.27051L11.4998 13.1709C11.6572 13.7583 12.2551 14.1021 12.8447 13.9443C13.4346 13.7861 13.7803 13.1895 13.6228 12.6021L12.699 9.15381C12.5449 8.5791 12.8811 7.99902 13.4446 7.84814C14.0083 7.69727 14.5928 8.04443 14.7434 8.60596L16.0347 13.4253C16.1921 14.0132 16.79 14.3569 17.3796 14.1987C17.9695 14.041 18.3152 13.4443 18.1577 12.8564L17.2373 9.42139C17.0833 8.84668 17.4194 8.26709 17.9832 8.11572C18.5466 7.96484 19.1313 8.31201 19.2817 8.87402L20.573 13.6934C20.7305 14.2808 21.3284 14.6245 21.918 14.4668C22.5078 14.3086 22.8535 13.7119 22.696 13.1245L21.844 10.0488Z" fill="#FFFFFF" fill-opacity="1.000000" fill-rule="nonzero"/>
	<path id="Vector" d="M20.7651 7.94141C20.2024 6.77295 18.8667 6.0957 17.5374 6.45215C16.9373 6.61279 16.4375 6.95703 16.0806 7.40771C15.4546 6.40527 14.2239 5.85596 12.999 6.18408C12.4502 6.33154 11.9854 6.63184 11.637 7.02686L10.5112 2.82471C10.1204 1.3667 8.60742 0.445801 7.10278 0.849121C5.61182 1.24854 4.74121 2.7793 5.13916 4.26416L8.8186 17.9966L4.77588 15.3042L4.72681 15.2764C4.08228 14.9058 3.3208 14.8247 2.6377 15.0078C1.95264 15.1914 1.32788 15.6353 0.949463 16.2886C0.391357 17.251 0.664062 18.2051 0.921143 18.7368C1.17871 19.2695 1.56079 19.7036 1.85254 19.9922C3.63135 21.7959 5.49463 23.4526 7.10938 24.8872L7.11108 24.8887L7.2395 25.0034C8.42017 26.0571 9.49219 27.0137 10.3208 27.8364L10.3252 27.8403C10.8535 28.3613 12.0659 29.7568 12.7866 30.5864L13.5029 31.4111L27.77 27.5884L27.8225 26.3237C27.8779 24.9863 27.9285 23.0156 27.905 21.1465C27.8823 19.3599 27.793 17.4175 27.4912 16.291L25.5525 9.05518C25.1616 7.59717 23.6487 6.67627 22.144 7.07959C21.5864 7.229 21.1155 7.53662 20.7651 7.94141ZM8.25488 23.6011C8.30518 23.646 8.35596 23.6909 8.40625 23.7358C9.56934 24.7739 10.6721 25.7578 11.5342 26.6138C12.1111 27.1826 13.3425 28.6001 14.0439 29.4072L14.0969 29.4688L26.1013 26.2524C26.2104 23.6191 26.2996 18.5 25.8271 16.7368L23.8884 9.50098C23.738 8.93945 23.1533 8.59229 22.5898 8.74316C22.0261 8.89453 21.6899 9.47412 21.844 10.0488L22.696 13.1245C22.8535 13.7119 22.5078 14.3086 21.918 14.4668C21.3284 14.6245 20.7305 14.2808 20.573 13.6934L19.2817 8.87402C19.1313 8.31201 18.5466 7.96484 17.9832 8.11572C17.4194 8.26709 17.0833 8.84668 17.2373 9.42139L18.1577 12.8564C18.3152 13.4443 17.9695 14.041 17.3796 14.1987C16.79 14.3569 16.1921 14.0132 16.0347 13.4253L14.7434 8.60596C14.5928 8.04443 14.0083 7.69727 13.4446 7.84814C12.8811 7.99902 12.5449 8.5791 12.699 9.15381L13.6228 12.6021C13.7803 13.1895 13.4346 13.7861 12.8447 13.9443C12.2551 14.1021 11.6572 13.7583 11.4998 13.1709L8.84717 3.27051C8.69653 2.70898 8.11206 2.36182 7.54834 2.5127C6.98486 2.66406 6.64868 3.24365 6.80273 3.81836L10.9077 19.1387C11.0266 19.5825 10.8564 20.0483 10.479 20.3174C10.0981 20.5732 9.59497 20.582 9.21924 20.333L3.86792 16.7695C3.6355 16.6357 3.34521 16.6016 3.08325 16.6719C2.80811 16.7456 2.57397 16.9204 2.43945 17.1523C2.1416 17.666 2.61279 18.3237 3.0708 18.7749C4.80664 20.5356 6.63257 22.1602 8.25488 23.6011Z" fill="#2F323A" fill-opacity="1.000000" fill-rule="evenodd"/>
</svg>
