<svg width="180.000000" height="46.000000" viewBox="0 0 180 46" fill="none" xmlns="http://www.w3.org/2000/svg" xmlns:xlink="http://www.w3.org/1999/xlink">
	<desc>
			Created with Pixso.
	</desc>
	<defs/>
	<rect id="Logo" width="180.000000" height="46.000000" fill="#FFFFFF" fill-opacity="0"/>
	<rect id="Rectangle 19" x="1.788086" y="7.152832" rx="5.960742" width="35.764450" height="35.764450" fill="#FCEC41" fill-opacity="1.000000"/>
	<rect id="Rectangle 19" y="8.941406" rx="5.960742" width="35.764450" height="35.764450" fill="#FBE303" fill-opacity="1.000000"/>
	<path id="image 42 (Traced)" d="M14.9097 14.9897C14.8096 15.0383 14.6938 15.1533 14.646 15.2524C14.5659 15.418 14.5742 15.5676 14.7866 17.7461C14.9106 19.021 15.0112 20.1182 15.0103 20.1846C14.9985 20.8533 13.9912 20.9746 13.7891 20.3313C13.7612 20.2419 13.687 19.6145 13.624 18.937C13.561 18.2595 13.5 17.6741 13.4873 17.636C13.459 17.5479 12.8511 17.8696 12.1074 18.3667C10.6323 19.3525 9.45117 20.71 8.66895 22.3179C8.375 22.9221 8.03223 23.907 7.89795 24.5325L7.80566 24.9648L7.43506 24.9648C6.90088 24.9648 6.6709 25.0486 6.3584 25.3562C5.98193 25.7266 5.87842 26.1184 6.02588 26.6099C6.11182 26.8979 6.55273 27.332 6.84521 27.4172C7.01416 27.4663 9.54639 27.481 17.8916 27.481C30.1064 27.481 29.0283 27.52 29.4458 27.0623C29.9233 26.5396 29.9233 25.9062 29.4458 25.3835C29.1655 25.0764 28.8706 24.9648 28.3389 24.9648L27.958 24.9648L27.8657 24.5325C27.4307 22.5024 26.2461 20.5044 24.667 19.137C23.855 18.4336 22.3286 17.4749 22.2764 17.635C22.2637 17.6736 22.2007 18.2712 22.1362 18.9631C22.0718 19.655 21.9873 20.2974 21.9492 20.3904C21.8682 20.5869 21.5923 20.771 21.3784 20.7712C21.0562 20.7717 20.7588 20.4922 20.7534 20.1846C20.7524 20.1182 20.853 19.0193 20.9775 17.7427C21.2002 15.4565 21.2021 15.4185 21.1055 15.2424C20.916 14.8955 20.9658 14.9006 17.8735 14.9021C15.394 14.9031 15.0684 14.9128 14.9097 14.9897ZM8.96777 29.2065C8.30859 29.3652 7.79053 29.9255 7.68945 30.5889L7.65186 30.8354L6.93701 30.8354C6.24902 30.8354 6.21729 30.8403 6.0918 30.9644C5.96191 31.0918 5.96094 31.1011 5.96094 32.0935C5.96094 33.0862 5.96191 33.0952 6.0918 33.2229C6.21729 33.3469 6.24854 33.3516 6.94287 33.3516L7.66406 33.3516L7.66406 34.2654C7.66406 34.7739 7.68848 35.2449 7.71973 35.3269C7.79395 35.5234 9.66553 37.3782 9.88428 37.4717C10.1362 37.5796 15.4058 37.5796 15.6685 37.4717C15.8545 37.3953 15.8716 37.376 16.5244 36.511C16.9854 35.8999 17.7632 35.0808 17.8818 35.0808C18.0005 35.0808 18.7778 35.8999 19.2393 36.511C19.8921 37.376 19.9092 37.3953 20.0952 37.4717C20.3579 37.5796 25.627 37.5796 25.8794 37.4717C26.0977 37.3782 27.9697 35.5234 28.0439 35.3269C28.0747 35.2449 28.0996 34.7739 28.0996 34.2654L28.0996 33.3516L28.8203 33.3516C29.5151 33.3516 29.5464 33.3469 29.6719 33.2229C29.8018 33.0952 29.8027 33.0862 29.8027 32.0935C29.8027 31.1011 29.8018 31.0918 29.6719 30.9644C29.5464 30.8403 29.5146 30.8354 28.8267 30.8354L28.1118 30.8354L28.0742 30.5881C28.0317 30.3105 27.853 29.9326 27.6528 29.6985C27.5796 29.6128 27.3687 29.4619 27.1846 29.3635L26.8491 29.1843L17.9883 29.1763C13.1147 29.1719 9.05566 29.1855 8.96777 29.2065ZM26.3965 32.761L26.3965 34.6865L25.7988 35.2771L25.2012 35.8677L23.0425 35.8677L20.8838 35.8677L20.5425 35.4089C20.3545 35.1567 19.9248 34.6772 19.5869 34.3435C18.4819 33.2517 17.8403 33.1038 16.8989 33.7239C16.4473 34.0217 15.6929 34.7803 15.2144 35.4182L14.8774 35.8677L12.7217 35.8677L10.5659 35.8677L9.96631 35.2788L9.3667 34.6899L9.3667 32.7627L9.3667 30.8354L17.8818 30.8354L26.3965 30.8354L26.3965 32.761Z" fill="#171B24" fill-opacity="1.000000" fill-rule="evenodd"/>
	<path id="Rectangle 7 (Stroke)" d="M12.5176 7.15283C12.5176 3.20239 15.7202 0 19.6704 0C23.6211 0 26.8232 3.20239 26.8232 7.15283L24.439 7.15283C24.439 4.51929 22.3042 2.38428 19.6704 2.38428C17.0366 2.38428 14.9019 4.51929 14.9019 7.15283L12.5176 7.15283Z" fill="#FDF074" fill-opacity="1.000000" fill-rule="evenodd"/>
	<path id="Rectangle 7 (Stroke)" d="M10.7295 8.94092C10.7295 4.99048 13.9321 1.78809 17.8823 1.78809L18.4785 1.78809C22.4287 1.78809 25.6313 4.99048 25.6313 8.94092L23.2471 8.94092C23.2471 6.30737 21.1123 4.17236 18.4785 4.17236L17.8823 4.17236C15.2485 4.17236 13.1138 6.30737 13.1138 8.94092L10.7295 8.94092Z" fill="#FBE303" fill-opacity="1.000000" fill-rule="evenodd"/>
	<path id="StroykaStore" d="M52.3711 32.7546C51.3999 32.7546 50.5571 32.6475 49.8433 32.4331Q48.772 32.1118 48.0435 31.5334Q47.4614 31.0569 47.0972 30.4497Q47.019 30.3196 46.9507 30.1836C46.6938 29.655 46.5366 29.0767 46.4795 28.4482L49.0503 28.4482C49.1074 28.748 49.2002 29.0195 49.3291 29.2625C49.4717 29.5051 49.6719 29.7195 49.9287 29.905C50.186 30.0908 50.5073 30.2336 50.8931 30.3335C51.293 30.4336 51.7856 30.4836 52.3711 30.4836C52.9712 30.4836 53.478 30.4336 53.8921 30.3335C54.3208 30.2192 54.6636 30.0764 54.9209 29.905C55.1919 29.7195 55.3848 29.5051 55.499 29.2625C55.6279 29.0054 55.6919 28.7339 55.6919 28.4482Q55.6919 27.9895 55.5039 27.6292Q55.2612 27.1646 54.7065 26.8628Q53.7422 26.3271 51.6855 25.8987Q50.5288 25.6416 49.6289 25.2988Q48.729 24.9346 48.1294 24.4204Q47.7954 24.1226 47.5483 23.7651Q47.3506 23.4797 47.208 23.1565Q46.9082 22.4065 46.9082 21.3782Q46.9082 20.8989 47.0205 20.448L47.0205 20.448Q47.1045 20.1125 47.251 19.7927Q47.3223 19.6458 47.4058 19.5061Q47.7495 18.9336 48.3008 18.4858Q48.9863 17.929 49.9932 17.6074Q51.0215 17.2861 52.3711 17.2861Q53.6782 17.2861 54.6636 17.5862C55.3208 17.7861 55.8706 18.0718 56.3135 18.4431C56.7705 18.8 57.1201 19.2285 57.3633 19.7285C57.6201 20.2285 57.7773 20.7783 57.8345 21.3782L55.2637 21.3782C55.1494 20.8354 54.8564 20.3999 54.3853 20.0713Q53.6997 19.5571 52.3711 19.5571Q50.8286 19.5571 50.1431 20.0928Q49.6978 20.4517 49.5513 20.9067Q49.479 21.1309 49.479 21.3782Q49.479 21.9226 49.7192 22.323Q49.9326 22.6787 50.3359 22.9207C50.9072 23.2634 51.7856 23.5564 52.9712 23.7991C53.8423 23.9849 54.6064 24.199 55.2637 24.4419Q56.2705 24.8062 56.9346 25.363C57.3774 25.7202 57.7061 26.1487 57.9199 26.6487C58.1484 27.1484 58.2627 27.7483 58.2627 28.4482C58.2627 29.0625 58.1416 29.6338 57.8984 30.1621C57.6558 30.6907 57.2847 31.1477 56.7847 31.5334C56.2988 31.9189 55.6851 32.219 54.9419 32.4331C54.2139 32.6475 53.3569 32.7546 52.3711 32.7546ZM132.106 32.7546C131.135 32.7546 130.292 32.6475 129.578 32.4331C128.864 32.219 128.264 31.9189 127.778 31.5334C127.307 31.1477 126.942 30.6978 126.686 30.1836C126.428 29.655 126.271 29.0767 126.214 28.4482L128.785 28.4482C128.842 28.748 128.935 29.0195 129.063 29.2625C129.207 29.5051 129.406 29.7195 129.664 29.905C129.92 30.0908 130.242 30.2336 130.627 30.3335C131.027 30.4336 131.52 30.4836 132.106 30.4836C132.706 30.4836 133.213 30.4336 133.627 30.3335C134.055 30.2192 134.398 30.0764 134.655 29.905C134.927 29.7195 135.12 29.5051 135.234 29.2625C135.362 29.0054 135.427 28.7339 135.427 28.4482Q135.427 27.9895 135.238 27.6292Q134.996 27.1646 134.441 26.8628C133.798 26.5059 132.792 26.1843 131.42 25.8987C130.649 25.7273 129.963 25.5273 129.363 25.2988C128.764 25.0562 128.264 24.7632 127.864 24.4204C127.464 24.0635 127.157 23.6421 126.942 23.1565C126.743 22.6565 126.643 22.0637 126.643 21.3782Q126.643 20.8989 126.755 20.448Q126.839 20.1125 126.985 19.7927C127.228 19.293 127.578 18.8572 128.035 18.4858C128.492 18.1145 129.057 17.8218 129.728 17.6074C130.413 17.3933 131.206 17.2861 132.106 17.2861C132.977 17.2861 133.741 17.3862 134.398 17.5862C135.055 17.7861 135.605 18.0718 136.048 18.4431C136.505 18.8 136.855 19.2285 137.098 19.7285C137.355 20.2285 137.512 20.7783 137.569 21.3782L134.998 21.3782C134.884 20.8354 134.591 20.3999 134.12 20.0713Q133.434 19.5571 132.106 19.5571C131.078 19.5571 130.335 19.7356 129.877 20.0928C129.435 20.4497 129.213 20.8782 129.213 21.3782C129.213 22.0637 129.499 22.5779 130.07 22.9207C130.642 23.2634 131.52 23.5564 132.706 23.7991C133.577 23.9849 134.341 24.199 134.998 24.4419C135.669 24.6846 136.227 24.9917 136.669 25.363Q137.128 25.7332 137.423 26.2056L137.423 26.2058Q137.556 26.417 137.655 26.6487C137.883 27.1484 137.998 27.7483 137.998 28.4482Q137.998 29.1794 137.768 29.8298Q137.708 29.9988 137.633 30.1621C137.391 30.6907 137.019 31.1477 136.519 31.5334C136.034 31.9189 135.419 32.219 134.677 32.4331C133.948 32.6475 133.091 32.7546 132.106 32.7546ZM102.31 17.5217L104.667 17.5217L104.667 26.113L109.38 21.1641L112.165 21.1641L107.581 25.9844L112.594 32.5188L109.766 32.5188L106.017 27.4841L104.667 28.8552L104.667 32.5188L102.31 32.5188L102.31 17.5217ZM65.1294 32.626C63.8296 32.626 62.8945 32.3474 62.3228 31.7905Q61.4873 30.9548 61.4873 29.0911L61.4873 23.1777L59.8804 23.1777L59.8804 21.1641L61.4873 21.1641L61.4873 18.593L63.8442 18.593L63.8442 21.1641L66.7363 21.1641L66.7363 23.1777L63.8442 23.1777L63.8442 28.7695C63.8442 29.4409 63.9653 29.9121 64.2085 30.1836Q64.5938 30.5693 65.665 30.5693C66.0938 30.5693 66.522 30.5479 66.9507 30.5049L66.9507 32.5188C66.6792 32.5474 66.4009 32.5688 66.1152 32.583C65.8296 32.6116 65.501 32.626 65.1294 32.626ZM144.864 32.626C143.564 32.626 142.629 32.3474 142.058 31.7905C141.5 31.2334 141.222 30.3335 141.222 29.0911L141.222 23.1777L139.615 23.1777L139.615 21.1641L141.222 21.1641L141.222 18.593L143.579 18.593L143.579 21.1641L146.471 21.1641L146.471 23.1777L143.579 23.1777L143.579 28.7695C143.579 29.4409 143.7 29.9121 143.943 30.1836Q144.329 30.5693 145.4 30.5693C145.828 30.5693 146.257 30.5479 146.685 30.5049L146.685 32.5188C146.414 32.5474 146.135 32.5688 145.85 32.583C145.564 32.6116 145.235 32.626 144.864 32.626ZM69.3159 21.1641L71.501 21.1641L71.501 23.092C71.7295 22.5066 72.1011 21.9995 72.6152 21.571Q72.7959 21.4246 72.9951 21.3115Q73.6714 20.9282 74.5645 20.9282C74.9219 20.9282 75.186 20.9426 75.3574 20.9712C75.543 20.9998 75.6714 21.0283 75.7432 21.0569L75.7432 23.1992C75.5 23.1279 75.2788 23.0779 75.0786 23.0493C74.8789 23.0063 74.6362 22.9851 74.3506 22.9851C73.8789 22.9851 73.4722 23.0708 73.1294 23.2422C72.8008 23.3992 72.5293 23.6135 72.3149 23.8848C72.1011 24.1418 71.9365 24.449 71.8223 24.8062C71.7222 25.1489 71.6724 25.5059 71.6724 25.8772L71.6724 32.5188L69.3159 32.5188L69.3159 21.1641ZM82.3818 32.7546C81.5967 32.7546 80.8608 32.6331 80.1753 32.3904C79.5039 32.1333 78.9185 31.762 78.4185 31.2761Q77.6685 30.5479 77.2402 29.4766C76.9546 28.748 76.8115 27.9055 76.8115 26.9485L76.8115 26.52C76.8115 25.6201 76.9546 24.8274 77.2402 24.1418Q77.6685 23.092 78.4185 22.385C78.9185 21.8994 79.5039 21.5354 80.1753 21.2925C80.8608 21.0496 81.5967 20.9282 82.3818 20.9282C83.1675 20.9282 83.896 21.0496 84.5674 21.2925C85.2529 21.5354 85.8457 21.8994 86.3457 22.385C86.8452 22.8564 87.2383 23.4421 87.5239 24.1418C87.8096 24.8274 87.9521 25.6201 87.9521 26.52L87.9521 26.9485C87.9521 27.9055 87.8096 28.748 87.5239 29.4766C87.2383 30.1907 86.8452 30.7905 86.3457 31.2761C85.8457 31.762 85.2529 32.1333 84.5674 32.3904C83.896 32.6331 83.1675 32.7546 82.3818 32.7546ZM117.64 32.7546C117.026 32.7546 116.476 32.6689 115.991 32.4973C115.519 32.3118 115.119 32.0618 114.791 31.7476C114.462 31.4192 114.212 31.0405 114.041 30.6121C113.87 30.1836 113.784 29.7122 113.784 29.198C113.784 28.0698 114.12 27.2341 114.791 26.6914Q115.798 25.856 117.747 25.856L121.282 25.856L121.282 25.2346C121.282 24.3777 121.089 23.792 120.704 23.4778C120.333 23.1492 119.74 22.9851 118.926 22.9851C118.197 22.9851 117.662 23.0994 117.319 23.3279C116.976 23.5564 116.776 23.8706 116.719 24.2705L114.427 24.2705Q114.464 23.6379 114.711 23.1025Q114.749 23.0212 114.791 22.9421C115.019 22.5281 115.326 22.1709 115.712 21.8708C116.112 21.571 116.59 21.3425 117.147 21.1853C117.705 21.0139 118.333 20.9282 119.033 20.9282Q120.083 20.9282 120.918 21.1641C121.489 21.321 121.975 21.571 122.375 21.9138C122.775 22.2422 123.082 22.6709 123.296 23.1992Q123.639 23.9919 123.639 25.106L123.639 29.6265C123.639 30.2266 123.646 30.7549 123.661 31.2119C123.675 31.6548 123.71 32.0903 123.768 32.5188L121.625 32.5188C121.582 32.1904 121.546 31.9119 121.518 31.6833C121.504 31.4548 121.497 31.1692 121.497 30.8264C121.225 31.3547 120.754 31.8118 120.083 32.1975C119.426 32.5688 118.611 32.7546 117.64 32.7546ZM153.873 32.7546C153.088 32.7546 152.352 32.6331 151.667 32.3904C150.995 32.1333 150.41 31.762 149.91 31.2761C149.41 30.7905 149.017 30.1907 148.731 29.4766C148.446 28.748 148.303 27.9055 148.303 26.9485L148.303 26.52C148.303 25.6201 148.446 24.8274 148.731 24.1418C149.017 23.4421 149.41 22.8564 149.91 22.385C150.41 21.8994 150.995 21.5354 151.667 21.2925C152.352 21.0496 153.088 20.9282 153.873 20.9282C154.659 20.9282 155.387 21.0496 156.059 21.2925C156.744 21.5354 157.337 21.8994 157.837 22.385C158.337 22.8564 158.729 23.4421 159.015 24.1418C159.301 24.8274 159.444 25.6201 159.444 26.52L159.444 26.9485C159.444 27.9055 159.301 28.748 159.015 29.4766C158.729 30.1907 158.337 30.7905 157.837 31.2761C157.337 31.762 156.744 32.1333 156.059 32.3904C155.387 32.6331 154.659 32.7546 153.873 32.7546ZM161.792 21.1641L163.977 21.1641L163.977 23.092C164.206 22.5066 164.577 21.9995 165.091 21.571C165.62 21.1426 166.27 20.9282 167.041 20.9282C167.398 20.9282 167.662 20.9426 167.833 20.9712C168.019 20.9998 168.148 21.0283 168.219 21.0569L168.219 23.1992C167.977 23.1279 167.755 23.0779 167.555 23.0493C167.355 23.0063 167.112 22.9851 166.827 22.9851C166.355 22.9851 165.948 23.0708 165.605 23.2422C165.277 23.3992 165.005 23.6135 164.792 23.8848C164.577 24.1418 164.413 24.449 164.298 24.8062C164.199 25.1489 164.148 25.5059 164.148 25.8772L164.148 32.5188L161.792 32.5188L161.792 21.1641ZM174.858 32.7546C174.101 32.7546 173.387 32.6401 172.716 32.4116C172.044 32.1689 171.452 31.8118 170.938 31.3406C170.438 30.855 170.038 30.2478 169.738 29.5195C169.438 28.791 169.288 27.9341 169.288 26.9485L169.288 26.52C169.288 25.5774 169.431 24.7561 169.716 24.0562C170.002 23.3564 170.388 22.7778 170.874 22.3208C171.373 21.8496 171.944 21.4995 172.587 21.271Q173.551 20.9282 174.644 20.9282C176.372 20.9282 177.693 21.3926 178.607 22.3208C179.536 23.2493 180 24.5776 180 26.3059L180 27.5056L171.688 27.5056C171.702 28.0911 171.794 28.5911 171.966 29.0054C172.152 29.4053 172.387 29.7336 172.673 29.9907C172.973 30.2336 173.309 30.4121 173.68 30.5264C174.065 30.6406 174.458 30.6978 174.858 30.6978C175.672 30.6978 176.265 30.5693 176.637 30.3123C177.022 30.0549 177.286 29.7195 177.429 29.3052L179.786 29.3052C179.557 30.4336 178.993 31.2905 178.093 31.8762C177.208 32.4617 176.129 32.7546 174.858 32.7546ZM91.7031 37.0393C91.4893 37.0393 91.2749 37.0181 91.0605 36.9751L91.0605 34.9185Q91.3818 34.9827 91.7031 34.9827L91.7031 34.9827C91.9463 34.9827 92.146 34.9397 92.3032 34.854C92.4746 34.7827 92.6245 34.647 92.7529 34.447C92.896 34.2615 93.0317 34.0115 93.1602 33.6973C93.3032 33.3831 93.46 32.9902 93.6313 32.5188L88.811 21.1641L91.3818 21.1641L94.8525 29.948L97.9805 21.1641L100.38 21.1641L95.9883 32.5188C95.6738 33.3186 95.3813 34.0044 95.1099 34.5757C94.8384 35.147 94.5386 35.6111 94.21 35.9683C93.8955 36.3396 93.5386 36.6108 93.1387 36.7822C92.7388 36.9536 92.2603 37.0393 91.7031 37.0393ZM82.3818 30.6978C82.7964 30.6978 83.189 30.6265 83.5605 30.4836C83.9458 30.3408 84.2817 30.1194 84.5674 29.8193C84.8672 29.5195 85.103 29.1338 85.2744 28.6624C85.46 28.1912 85.5527 27.6199 85.5527 26.9485L85.5527 26.52C85.5527 25.9058 85.46 25.3774 85.2744 24.9346C85.103 24.4919 84.8672 24.1277 84.5674 23.842C84.2817 23.5564 83.9458 23.342 83.5605 23.1992C83.189 23.0564 82.7964 22.9851 82.3818 22.9851C81.9678 22.9851 81.5679 23.0564 81.1821 23.1992C80.811 23.342 80.4751 23.5564 80.1753 23.842C79.8896 24.1277 79.6538 24.4919 79.4683 24.9346C79.2969 25.3774 79.2114 25.9058 79.2114 26.52L79.2114 26.9485C79.2114 27.6199 79.2969 28.1912 79.4683 28.6624C79.6538 29.1338 79.8896 29.5195 80.1753 29.8193C80.4751 30.1194 80.811 30.3408 81.1821 30.4836C81.5679 30.6265 81.9678 30.6978 82.3818 30.6978ZM153.873 30.6978C154.288 30.6978 154.68 30.6265 155.052 30.4836C155.438 30.3408 155.773 30.1194 156.059 29.8193C156.358 29.5195 156.594 29.1338 156.766 28.6624C156.951 28.1912 157.044 27.6199 157.044 26.9485L157.044 26.52C157.044 25.9058 156.951 25.3774 156.766 24.9346C156.594 24.4919 156.358 24.1277 156.059 23.842C155.773 23.5564 155.438 23.342 155.052 23.1992C154.68 23.0564 154.288 22.9851 153.873 22.9851C153.459 22.9851 153.059 23.0564 152.673 23.1992C152.302 23.342 151.966 23.5564 151.667 23.842C151.381 24.1277 151.145 24.4919 150.959 24.9346C150.788 25.3774 150.703 25.9058 150.703 26.52L150.703 26.9485C150.703 27.6199 150.788 28.1912 150.959 28.6624C151.145 29.1338 151.381 29.5195 151.667 29.8193C151.966 30.1194 152.302 30.3408 152.673 30.4836C153.059 30.6265 153.459 30.6978 153.873 30.6978ZM174.751 22.9851C174.351 22.9851 173.966 23.0349 173.594 23.135C173.237 23.2349 172.916 23.3992 172.63 23.6277C172.359 23.842 172.137 24.1277 171.966 24.4846Q171.709 24.999 171.688 25.7488L177.644 25.7488C177.629 25.2202 177.543 24.7776 177.386 24.4204C177.244 24.0635 177.043 23.7778 176.787 23.5635C176.529 23.3491 176.222 23.1992 175.865 23.1135Q175.351 22.9851 174.751 22.9851ZM118.283 30.6978C118.683 30.6978 119.062 30.6477 119.418 30.5479C119.79 30.4336 120.111 30.2764 120.382 30.0764C120.654 29.8623 120.868 29.6052 121.025 29.3052C121.197 28.991 121.282 28.6338 121.282 28.2339L121.282 27.6128L118.176 27.6128Q117.276 27.6128 116.719 27.9983C116.362 28.2554 116.183 28.6338 116.183 29.1338C116.183 29.6052 116.348 29.9836 116.676 30.2693C117.019 30.5549 117.555 30.6978 118.283 30.6978Z" fill="#FFFFFF" fill-opacity="1.000000" fill-rule="evenodd"/>
</svg>
