<svg width="180.000000" height="46.000000" viewBox="0 0 180 46" fill="none" xmlns="http://www.w3.org/2000/svg" xmlns:xlink="http://www.w3.org/1999/xlink">
	<desc>
			Created with Pixso.
	</desc>
	<defs/>
	<rect width="180.000000" height="46.000000" fill="#FFFFFF" fill-opacity="0"/>
	<rect x="1.788086" y="7.153320" rx="5.960742" width="35.764450" height="35.764450" fill="#FCEC41" fill-opacity="1.000000"/>
	<rect y="8.941406" rx="5.960742" width="35.764450" height="35.764450" fill="#FBE303" fill-opacity="1.000000"/>
	<path d="M14.9097 14.9902C14.8096 15.0391 14.6938 15.1543 14.646 15.2529C14.5659 15.418 14.5742 15.5684 14.7866 17.7471C14.9106 19.0215 15.0112 20.1191 15.0103 20.1846C14.9985 20.8535 13.9912 20.9746 13.7891 20.332C13.7612 20.2422 13.687 19.6152 13.624 18.9375C13.561 18.2598 13.5 17.6748 13.4873 17.6367C13.459 17.5479 12.8511 17.8701 12.1074 18.3672C10.6323 19.3535 9.45117 20.7109 8.66895 22.3184C8.375 22.9229 8.03223 23.9072 7.89795 24.5332L7.80566 24.9658L7.43506 24.9658C6.90088 24.9658 6.6709 25.0488 6.3584 25.3564C5.98193 25.7275 5.87842 26.1191 6.02588 26.6104C6.11182 26.8984 6.55273 27.333 6.84521 27.418C7.01416 27.4668 9.54639 27.4814 17.8916 27.4814C30.1064 27.4814 29.0283 27.5205 29.4458 27.0625C29.9233 26.54 29.9233 25.9072 29.4458 25.3838C29.1655 25.0771 28.8706 24.9658 28.3389 24.9658L27.958 24.9658L27.8657 24.5332C27.4307 22.5029 26.2461 20.5049 24.667 19.1377C23.855 18.4336 22.3286 17.4756 22.2764 17.6357C22.2637 17.6738 22.2007 18.2715 22.1362 18.9639C22.0718 19.6553 21.9873 20.2979 21.9492 20.3906C21.8682 20.5879 21.5923 20.7715 21.3784 20.7715C21.0562 20.7725 20.7588 20.4932 20.7534 20.1846C20.7524 20.1191 20.853 19.0195 20.9775 17.7432C21.2002 15.457 21.2021 15.4189 21.1055 15.2432C20.916 14.8965 20.9658 14.9014 17.8735 14.9023C15.394 14.9033 15.0684 14.9131 14.9097 14.9902ZM8.96777 29.207C8.30859 29.3652 7.79053 29.9258 7.68945 30.5889L7.65186 30.8359L6.93701 30.8359C6.24902 30.8359 6.21729 30.8408 6.0918 30.9648C5.96191 31.0928 5.96094 31.1016 5.96094 32.0938C5.96094 33.0869 5.96191 33.0957 6.0918 33.2236C6.21729 33.3477 6.24854 33.3525 6.94287 33.3525L7.66406 33.3525L7.66406 34.2656C7.66406 34.7744 7.68848 35.2451 7.71973 35.3271C7.79395 35.5234 9.66553 37.3789 9.88428 37.4717C10.1362 37.5801 15.4058 37.5801 15.6685 37.4727C15.8545 37.3955 15.8716 37.376 16.5244 36.5117C16.9854 35.9004 17.7632 35.0811 17.8818 35.0811C18.0005 35.0811 18.7778 35.9004 19.2393 36.5117C19.8921 37.376 19.9092 37.3955 20.0952 37.4727C20.3579 37.5801 25.627 37.5801 25.8794 37.4717C26.0977 37.3789 27.9697 35.5234 28.0439 35.3271C28.0747 35.2451 28.0996 34.7744 28.0996 34.2656L28.0996 33.3525L28.8203 33.3525C29.5151 33.3525 29.5464 33.3477 29.6719 33.2236C29.8018 33.0957 29.8027 33.0869 29.8027 32.0938C29.8027 31.1016 29.8018 31.0928 29.6719 30.9648C29.5464 30.8408 29.5146 30.8359 28.8267 30.8359L28.1118 30.8359L28.0742 30.5889C28.0317 30.3105 27.853 29.9336 27.6528 29.6992C27.5796 29.6133 27.3687 29.4629 27.1846 29.3643L26.8491 29.1846L17.9883 29.1768C13.1147 29.1719 9.05566 29.1855 8.96777 29.207ZM26.3965 32.7617L26.3965 34.6875L25.7988 35.2773L25.2012 35.8682L23.0425 35.8682L20.8838 35.8682L20.5425 35.4092C20.3545 35.1572 19.9248 34.6777 19.5869 34.3438C18.4819 33.252 17.8403 33.1045 16.8989 33.7246C16.4473 34.0225 15.6929 34.7812 15.2144 35.4189L14.8774 35.8682L12.7217 35.8682L10.5659 35.8682L9.96631 35.2793L9.3667 34.6904L9.3667 32.7637L9.3667 30.8359L17.8818 30.8359L26.3965 30.8359L26.3965 32.7617Z" fill="#171B24" fill-opacity="1.000000" fill-rule="evenodd"/>
	<path d="M12.5176 7.15332C12.5176 3.20215 15.7202 0 19.6704 0C23.6211 0 26.8232 3.20215 26.8232 7.15332L24.439 7.15332C24.439 4.51953 22.3042 2.38477 19.6704 2.38477C17.0366 2.38477 14.9019 4.51953 14.9019 7.15332L12.5176 7.15332Z" fill="#FDF074" fill-opacity="1.000000" fill-rule="evenodd"/>
	<path d="M10.7295 8.94141C10.7295 4.99023 13.9321 1.78809 17.8823 1.78809L18.4785 1.78809C22.4287 1.78809 25.6313 4.99023 25.6313 8.94141L23.2471 8.94141C23.2471 6.30762 21.1123 4.17285 18.4785 4.17285L17.8823 4.17285C15.2485 4.17285 13.1138 6.30762 13.1138 8.94141L10.7295 8.94141Z" fill="#FBE303" fill-opacity="1.000000" fill-rule="evenodd"/>
	<path d="M52.3711 32.7549C51.3999 32.7549 50.5571 32.6475 49.8433 32.4336Q48.772 32.1113 48.0435 31.5332Q47.4614 31.0566 47.0972 30.4502Q47.019 30.3193 46.9507 30.1836C46.6938 29.6553 46.5366 29.0771 46.4795 28.4482L49.0503 28.4482C49.1074 28.748 49.2002 29.0195 49.3291 29.2627C49.4717 29.5049 49.6719 29.7197 49.9287 29.9053C50.186 30.0908 50.5073 30.2334 50.8931 30.334C51.293 30.4336 51.7856 30.4834 52.3711 30.4834C52.9712 30.4834 53.478 30.4336 53.8921 30.334C54.3208 30.2197 54.6636 30.0762 54.9209 29.9053C55.1919 29.7197 55.3848 29.5049 55.499 29.2627C55.6279 29.0049 55.6919 28.7334 55.6919 28.4482Q55.6919 27.9893 55.5039 27.6289Q55.2612 27.1641 54.7065 26.8633Q53.7422 26.3271 51.6855 25.8984Q50.5288 25.6416 49.6289 25.2988Q48.729 24.9346 48.1294 24.4209Q47.7954 24.123 47.5483 23.7656Q47.3506 23.4795 47.208 23.1562Q46.9082 22.4062 46.9082 21.3779Q46.9082 20.8994 47.0205 20.4482L47.0205 20.4482Q47.1045 20.1123 47.251 19.793Q47.3223 19.6455 47.4058 19.5059Q47.7495 18.9336 48.3008 18.4863Q48.9863 17.9287 49.9932 17.6074Q51.0215 17.2861 52.3711 17.2861Q53.6782 17.2861 54.6636 17.5859C55.3208 17.7861 55.8706 18.0713 56.3135 18.4434C56.7705 18.7998 57.1201 19.2285 57.3633 19.7285C57.6201 20.2285 57.7773 20.7783 57.8345 21.3779L55.2637 21.3779C55.1494 20.835 54.8564 20.3994 54.3853 20.0713Q53.6997 19.5566 52.3711 19.5566Q50.8286 19.5566 50.1431 20.0928Q49.6978 20.4512 49.5513 20.9072Q49.479 21.1309 49.479 21.3779Q49.479 21.9229 49.7192 22.3232Q49.9326 22.6787 50.3359 22.9209C50.9072 23.2637 51.7856 23.5566 52.9712 23.7988C53.8423 23.9844 54.6064 24.1992 55.2637 24.4414Q56.2705 24.8057 56.9346 25.3633C57.3774 25.7197 57.7061 26.1484 57.9199 26.6484C58.1484 27.1484 58.2627 27.748 58.2627 28.4482C58.2627 29.0625 58.1416 29.6338 57.8984 30.1621C57.6558 30.6904 57.2847 31.1475 56.7847 31.5332C56.2988 31.9189 55.6851 32.2188 54.9419 32.4336C54.2139 32.6475 53.3569 32.7549 52.3711 32.7549ZM132.106 32.7549C131.135 32.7549 130.292 32.6475 129.578 32.4336C128.864 32.2188 128.264 31.9189 127.778 31.5332C127.307 31.1475 126.942 30.6982 126.686 30.1836C126.428 29.6553 126.271 29.0771 126.214 28.4482L128.785 28.4482C128.842 28.748 128.935 29.0195 129.063 29.2627C129.207 29.5049 129.406 29.7197 129.664 29.9053C129.92 30.0908 130.242 30.2334 130.627 30.334C131.027 30.4336 131.52 30.4834 132.106 30.4834C132.706 30.4834 133.213 30.4336 133.627 30.334C134.055 30.2197 134.398 30.0762 134.655 29.9053C134.927 29.7197 135.12 29.5049 135.234 29.2627C135.362 29.0049 135.427 28.7334 135.427 28.4482Q135.427 27.9893 135.238 27.6289Q134.996 27.1641 134.441 26.8633C133.798 26.5059 132.792 26.1846 131.42 25.8984C130.649 25.7275 129.963 25.5273 129.363 25.2988C128.764 25.0557 128.264 24.7637 127.864 24.4209C127.464 24.0635 127.157 23.6416 126.942 23.1562C126.743 22.6562 126.643 22.0635 126.643 21.3779Q126.643 20.8994 126.755 20.4482Q126.839 20.1123 126.985 19.793C127.228 19.293 127.578 18.8574 128.035 18.4863C128.492 18.1143 129.057 17.8213 129.728 17.6074C130.413 17.3936 131.206 17.2861 132.106 17.2861C132.977 17.2861 133.741 17.3857 134.398 17.5859C135.055 17.7861 135.605 18.0713 136.048 18.4434C136.505 18.7998 136.855 19.2285 137.098 19.7285C137.355 20.2285 137.512 20.7783 137.569 21.3779L134.998 21.3779C134.884 20.835 134.591 20.3994 134.12 20.0713Q133.434 19.5566 132.106 19.5566C131.078 19.5566 130.335 19.7354 129.877 20.0928C129.435 20.4502 129.213 20.8779 129.213 21.3779C129.213 22.0635 129.499 22.5781 130.07 22.9209C130.642 23.2637 131.52 23.5566 132.706 23.7988C133.577 23.9844 134.341 24.1992 134.998 24.4414C135.669 24.6846 136.227 24.9922 136.669 25.3633Q137.128 25.7334 137.423 26.2061L137.423 26.2061Q137.556 26.417 137.655 26.6484C137.883 27.1484 137.998 27.748 137.998 28.4482Q137.998 29.1797 137.768 29.8301Q137.708 29.999 137.633 30.1621C137.391 30.6904 137.019 31.1475 136.519 31.5332C136.034 31.9189 135.419 32.2188 134.677 32.4336C133.948 32.6475 133.091 32.7549 132.106 32.7549ZM102.31 17.5215L104.667 17.5215L104.667 26.1133L109.38 21.1641L112.165 21.1641L107.581 25.9844L112.594 32.5186L109.766 32.5186L106.017 27.4844L104.667 28.8555L104.667 32.5186L102.31 32.5186L102.31 17.5215ZM65.1294 32.626C63.8296 32.626 62.8945 32.3477 62.3228 31.79Q61.4873 30.9551 61.4873 29.0908L61.4873 23.1777L59.8804 23.1777L59.8804 21.1641L61.4873 21.1641L61.4873 18.5928L63.8442 18.5928L63.8442 21.1641L66.7363 21.1641L66.7363 23.1777L63.8442 23.1777L63.8442 28.7695C63.8442 29.4404 63.9653 29.9121 64.2085 30.1836Q64.5938 30.5693 65.665 30.5693C66.0938 30.5693 66.522 30.5479 66.9507 30.5049L66.9507 32.5186C66.6792 32.5479 66.4009 32.5684 66.1152 32.583C65.8296 32.6113 65.501 32.626 65.1294 32.626ZM144.864 32.626C143.564 32.626 142.629 32.3477 142.058 31.79C141.5 31.2334 141.222 30.334 141.222 29.0908L141.222 23.1777L139.615 23.1777L139.615 21.1641L141.222 21.1641L141.222 18.5928L143.579 18.5928L143.579 21.1641L146.471 21.1641L146.471 23.1777L143.579 23.1777L143.579 28.7695C143.579 29.4404 143.7 29.9121 143.943 30.1836Q144.329 30.5693 145.4 30.5693C145.828 30.5693 146.257 30.5479 146.685 30.5049L146.685 32.5186C146.414 32.5479 146.135 32.5684 145.85 32.583C145.564 32.6113 145.235 32.626 144.864 32.626ZM69.3159 21.1641L71.501 21.1641L71.501 23.0918C71.7295 22.5068 72.1011 21.999 72.6152 21.5713Q72.7959 21.4248 72.9951 21.3115Q73.6714 20.9287 74.5645 20.9287C74.9219 20.9287 75.186 20.9424 75.3574 20.9707C75.543 21 75.6714 21.0283 75.7432 21.0566L75.7432 23.1992C75.5 23.1279 75.2788 23.0781 75.0786 23.0488C74.8789 23.0068 74.6362 22.9854 74.3506 22.9854C73.8789 22.9854 73.4722 23.0703 73.1294 23.2422C72.8008 23.3994 72.5293 23.6133 72.3149 23.8848C72.1011 24.1416 71.9365 24.4492 71.8223 24.8057C71.7222 25.1484 71.6724 25.5059 71.6724 25.877L71.6724 32.5186L69.3159 32.5186L69.3159 21.1641ZM82.3818 32.7549C81.5967 32.7549 80.8608 32.6328 80.1753 32.3906C79.5039 32.1328 78.9185 31.7617 78.4185 31.2764Q77.6685 30.5479 77.2402 29.4766C76.9546 28.748 76.8115 27.9053 76.8115 26.9482L76.8115 26.5205C76.8115 25.6201 76.9546 24.8271 77.2402 24.1416Q77.6685 23.0918 78.4185 22.3848C78.9185 21.8994 79.5039 21.5352 80.1753 21.293C80.8608 21.0498 81.5967 20.9287 82.3818 20.9287C83.1675 20.9287 83.896 21.0498 84.5674 21.293C85.2529 21.5352 85.8457 21.8994 86.3457 22.3848C86.8452 22.8564 87.2383 23.4424 87.5239 24.1416C87.8096 24.8271 87.9521 25.6201 87.9521 26.5205L87.9521 26.9482C87.9521 27.9053 87.8096 28.748 87.5239 29.4766C87.2383 30.1904 86.8452 30.791 86.3457 31.2764C85.8457 31.7617 85.2529 32.1328 84.5674 32.3906C83.896 32.6328 83.1675 32.7549 82.3818 32.7549ZM117.64 32.7549C117.026 32.7549 116.476 32.6689 115.991 32.4971C115.519 32.3115 115.119 32.0615 114.791 31.748C114.462 31.4189 114.212 31.041 114.041 30.6123C113.87 30.1836 113.784 29.7119 113.784 29.1982C113.784 28.0693 114.12 27.2344 114.791 26.6914Q115.798 25.8555 117.747 25.8555L121.282 25.8555L121.282 25.2344C121.282 24.3779 121.089 23.792 120.704 23.4775C120.333 23.1494 119.74 22.9854 118.926 22.9854C118.197 22.9854 117.662 23.0996 117.319 23.3281C116.976 23.5566 116.776 23.8701 116.719 24.2705L114.427 24.2705Q114.464 23.6377 114.711 23.1025Q114.749 23.0215 114.791 22.9424C115.019 22.5283 115.326 22.1709 115.712 21.8711C116.112 21.5713 116.59 21.3428 117.147 21.1855C117.705 21.0137 118.333 20.9287 119.033 20.9287Q120.083 20.9287 120.918 21.1641C121.489 21.3213 121.975 21.5713 122.375 21.9141C122.775 22.2422 123.082 22.6709 123.296 23.1992Q123.639 23.9922 123.639 25.1064L123.639 29.627C123.639 30.2266 123.646 30.7549 123.661 31.2119C123.675 31.6543 123.71 32.0908 123.768 32.5186L121.625 32.5186C121.582 32.1904 121.546 31.9121 121.518 31.6836C121.504 31.4551 121.497 31.1689 121.497 30.8262C121.225 31.3545 120.754 31.8115 120.083 32.1973C119.426 32.5684 118.611 32.7549 117.64 32.7549ZM153.873 32.7549C153.088 32.7549 152.352 32.6328 151.667 32.3906C150.995 32.1328 150.41 31.7617 149.91 31.2764C149.41 30.791 149.017 30.1904 148.731 29.4766C148.446 28.748 148.303 27.9053 148.303 26.9482L148.303 26.5205C148.303 25.6201 148.446 24.8271 148.731 24.1416C149.017 23.4424 149.41 22.8564 149.91 22.3848C150.41 21.8994 150.995 21.5352 151.667 21.293C152.352 21.0498 153.088 20.9287 153.873 20.9287C154.659 20.9287 155.387 21.0498 156.059 21.293C156.744 21.5352 157.337 21.8994 157.837 22.3848C158.337 22.8564 158.729 23.4424 159.015 24.1416C159.301 24.8271 159.444 25.6201 159.444 26.5205L159.444 26.9482C159.444 27.9053 159.301 28.748 159.015 29.4766C158.729 30.1904 158.337 30.791 157.837 31.2764C157.337 31.7617 156.744 32.1328 156.059 32.3906C155.387 32.6328 154.659 32.7549 153.873 32.7549ZM161.792 21.1641L163.977 21.1641L163.977 23.0918C164.206 22.5068 164.577 21.999 165.091 21.5713C165.62 21.1426 166.27 20.9287 167.041 20.9287C167.398 20.9287 167.662 20.9424 167.833 20.9707C168.019 21 168.148 21.0283 168.219 21.0566L168.219 23.1992C167.977 23.1279 167.755 23.0781 167.555 23.0488C167.355 23.0068 167.112 22.9854 166.827 22.9854C166.355 22.9854 165.948 23.0703 165.605 23.2422C165.277 23.3994 165.005 23.6133 164.792 23.8848C164.577 24.1416 164.413 24.4492 164.298 24.8057C164.199 25.1484 164.148 25.5059 164.148 25.877L164.148 32.5186L161.792 32.5186L161.792 21.1641ZM174.858 32.7549C174.101 32.7549 173.387 32.6406 172.716 32.4121C172.044 32.1689 171.452 31.8115 170.938 31.3408C170.438 30.8545 170.038 30.248 169.738 29.5195C169.438 28.791 169.288 27.9336 169.288 26.9482L169.288 26.5205C169.288 25.5771 169.431 24.7559 169.716 24.0566C170.002 23.3564 170.388 22.7783 170.874 22.3213C171.373 21.8496 171.944 21.5 172.587 21.2715Q173.551 20.9287 174.644 20.9287C176.372 20.9287 177.693 21.3926 178.607 22.3213C179.536 23.249 180 24.5771 180 26.3057L180 27.5059L171.688 27.5059C171.702 28.0908 171.794 28.5908 171.966 29.0049C172.152 29.4053 172.387 29.7334 172.673 29.9912C172.973 30.2334 173.309 30.4121 173.68 30.5264C174.065 30.6406 174.458 30.6982 174.858 30.6982C175.672 30.6982 176.265 30.5693 176.637 30.3125C177.022 30.0547 177.286 29.7197 177.429 29.3057L179.786 29.3057C179.557 30.4336 178.993 31.29 178.093 31.876C177.208 32.4619 176.129 32.7549 174.858 32.7549ZM91.7031 37.0391C91.4893 37.0391 91.2749 37.0176 91.0605 36.9756L91.0605 34.918Q91.3818 34.9824 91.7031 34.9824L91.7031 34.9824C91.9463 34.9824 92.146 34.9395 92.3032 34.8545C92.4746 34.7822 92.6245 34.6475 92.7529 34.4473C92.896 34.2617 93.0317 34.0117 93.1602 33.6973C93.3032 33.3828 93.46 32.9902 93.6313 32.5186L88.811 21.1641L91.3818 21.1641L94.8525 29.9482L97.9805 21.1641L100.38 21.1641L95.9883 32.5186C95.6738 33.3184 95.3813 34.0039 95.1099 34.5752C94.8384 35.1465 94.5386 35.6113 94.21 35.9678C93.8955 36.3398 93.5386 36.6113 93.1387 36.7822C92.7388 36.9541 92.2603 37.0391 91.7031 37.0391ZM82.3818 30.6982C82.7964 30.6982 83.189 30.626 83.5605 30.4834C83.9458 30.3408 84.2817 30.1191 84.5674 29.8193C84.8672 29.5195 85.103 29.1338 85.2744 28.6621C85.46 28.1914 85.5527 27.6201 85.5527 26.9482L85.5527 26.5205C85.5527 25.9062 85.46 25.377 85.2744 24.9346C85.103 24.4922 84.8672 24.1279 84.5674 23.8418C84.2817 23.5566 83.9458 23.3418 83.5605 23.1992C83.189 23.0566 82.7964 22.9854 82.3818 22.9854C81.9678 22.9854 81.5679 23.0566 81.1821 23.1992C80.811 23.3418 80.4751 23.5566 80.1753 23.8418C79.8896 24.1279 79.6538 24.4922 79.4683 24.9346C79.2969 25.377 79.2114 25.9062 79.2114 26.5205L79.2114 26.9482C79.2114 27.6201 79.2969 28.1914 79.4683 28.6621C79.6538 29.1338 79.8896 29.5195 80.1753 29.8193C80.4751 30.1191 80.811 30.3408 81.1821 30.4834C81.5679 30.626 81.9678 30.6982 82.3818 30.6982ZM153.873 30.6982C154.288 30.6982 154.68 30.626 155.052 30.4834C155.438 30.3408 155.773 30.1191 156.059 29.8193C156.358 29.5195 156.594 29.1338 156.766 28.6621C156.951 28.1914 157.044 27.6201 157.044 26.9482L157.044 26.5205C157.044 25.9062 156.951 25.377 156.766 24.9346C156.594 24.4922 156.358 24.1279 156.059 23.8418C155.773 23.5566 155.438 23.3418 155.052 23.1992C154.68 23.0566 154.288 22.9854 153.873 22.9854C153.459 22.9854 153.059 23.0566 152.673 23.1992C152.302 23.3418 151.966 23.5566 151.667 23.8418C151.381 24.1279 151.145 24.4922 150.959 24.9346C150.788 25.377 150.703 25.9062 150.703 26.5205L150.703 26.9482C150.703 27.6201 150.788 28.1914 150.959 28.6621C151.145 29.1338 151.381 29.5195 151.667 29.8193C151.966 30.1191 152.302 30.3408 152.673 30.4834C153.059 30.626 153.459 30.6982 153.873 30.6982ZM174.751 22.9854C174.351 22.9854 173.966 23.0352 173.594 23.1348C173.237 23.2354 172.916 23.3994 172.63 23.6279C172.359 23.8418 172.137 24.1279 171.966 24.4844Q171.709 24.999 171.688 25.749L177.644 25.749C177.629 25.2207 177.543 24.7773 177.386 24.4209C177.244 24.0635 177.043 23.7773 176.787 23.5635C176.529 23.3496 176.222 23.1992 175.865 23.1133Q175.351 22.9854 174.751 22.9854ZM118.283 30.6982C118.683 30.6982 119.062 30.6475 119.418 30.5479C119.79 30.4336 120.111 30.2764 120.382 30.0762C120.654 29.8623 120.868 29.6055 121.025 29.3057C121.197 28.9912 121.282 28.6338 121.282 28.2344L121.282 27.6123L118.176 27.6123Q117.276 27.6123 116.719 27.998C116.362 28.2559 116.183 28.6338 116.183 29.1338C116.183 29.6055 116.348 29.9834 116.676 30.2695C117.019 30.5547 117.555 30.6982 118.283 30.6982Z" fill="#171B24" fill-opacity="1.000000" fill-rule="evenodd"/>
</svg>
