<svg width="24.000000" height="24.000000" viewBox="0 0 24 24" fill="none" xmlns="http://www.w3.org/2000/svg" xmlns:xlink="http://www.w3.org/1999/xlink">
	<desc>
			Created with Pixso.
	</desc>
	<defs>
		<clipPath id="clip10_2949">
			<rect id="Icon" width="24.000000" height="24.000000" fill="white" fill-opacity="0"/>
		</clipPath>
	</defs>
	<g clip-path="url(#clip10_2949)">
		<path id="Vector" d="M21 8C20.9995 7.64941 20.9072 7.30469 20.7314 7.00098C20.5562 6.69727 20.3037 6.44531 20 6.26953L13 2.26953C12.6958 2.09473 12.3511 2.00195 12 2.00195C11.6489 2.00195 11.3042 2.09473 11 2.26953L4 6.26953C3.69629 6.44531 3.44385 6.69727 3.26855 7.00098C3.09277 7.30469 3.00049 7.64941 3 8L3 16C3.00049 16.3506 3.09277 16.6953 3.26855 16.999C3.44385 17.3027 3.69629 17.5547 4 17.7295L11 21.7295C11.3042 21.9053 11.5957 22 12 22C12.4043 22 12.6958 21.9053 13 21.7295L20 17.7295C20.3037 17.5547 20.5562 17.3027 20.7314 16.999C20.9072 16.6953 20.9995 16.3506 21 16L21 8Z" stroke="#5D6066" stroke-opacity="1.000000" stroke-width="2.000000"/>
		<path id="Vector" d="M3.27002 6.95996L12 12.0098L20.73 6.95996" stroke="#5D6066" stroke-opacity="1.000000" stroke-width="2.000000" stroke-linejoin="round" stroke-linecap="round"/>
	</g>
</svg>
