<svg width="24.000000" height="24.000000" viewBox="0 0 24 24" fill="none" xmlns="http://www.w3.org/2000/svg" xmlns:xlink="http://www.w3.org/1999/xlink">
	<desc>
			Created with Pixso.
	</desc>
	<defs>
		<clipPath id="clip10_2955">
			<rect id="Icon" width="24.000000" height="24.000000" fill="white" fill-opacity="0"/>
		</clipPath>
	</defs>
	<g clip-path="url(#clip10_2955)">
		<path id="Vector" d="M9 22C8.44775 22 8 21.5527 8 21C8 20.4473 8.44775 20 9 20C9.55225 20 10 20.4473 10 21C10 21.5527 9.55225 22 9 22Z" stroke="#5D6066" stroke-opacity="1.000000" stroke-width="2.000000" stroke-linejoin="round"/>
		<path id="Vector" d="M20 22C19.4478 22 19 21.5527 19 21C19 20.4473 19.4478 20 20 20C20.5522 20 21 20.4473 21 21C21 21.5527 20.5522 22 20 22Z" stroke="#5D6066" stroke-opacity="1.000000" stroke-width="2.000000" stroke-linejoin="round"/>
		<path id="Vector" d="M1 1L5 1L7.68018 14.3896C7.77148 14.8506 8.02197 15.2637 8.3877 15.5586C8.75342 15.8525 9.21094 16.0088 9.68018 16L19.3999 16C19.8691 16.0088 20.3267 15.8525 20.6924 15.5586C21.0581 15.2637 21.3086 14.8506 21.3999 14.3896L23 6L6 6" stroke="#5D6066" stroke-opacity="1.000000" stroke-width="2.000000" stroke-linejoin="round" stroke-linecap="round"/>
	</g>
</svg>
