<svg width="24.000000" height="24.000000" viewBox="0 0 24 24" fill="none" xmlns="http://www.w3.org/2000/svg" xmlns:xlink="http://www.w3.org/1999/xlink">
	<desc>
			Created with Pixso.
	</desc>
	<defs>
		<clipPath id="clip10_2944">
			<rect id="Icon" width="24.000000" height="24.000000" fill="white" fill-opacity="0"/>
		</clipPath>
	</defs>
	<g clip-path="url(#clip10_2944)">
		<path id="Vector" d="M20 21L20 19C20 17.9395 19.5786 16.9219 18.8286 16.1719C18.0781 15.4219 17.061 15 16 15L8 15C6.93896 15 5.92188 15.4219 5.17139 16.1719C4.42139 16.9219 4 17.9395 4 19L4 21" stroke="#5D6066" stroke-opacity="1.000000" stroke-width="2.000000" stroke-linejoin="round" stroke-linecap="round"/>
		<path id="Vector" d="M12 11C9.79102 11 8 9.20898 8 7C8 4.79102 9.79102 3 12 3C14.209 3 16 4.79102 16 7C16 9.20898 14.209 11 12 11Z" stroke="#5D6066" stroke-opacity="1.000000" stroke-width="2.000000" stroke-linejoin="round"/>
	</g>
</svg>
