<svg width="46.000000" height="36.000000" viewBox="0 0 46 36" fill="none" xmlns="http://www.w3.org/2000/svg" xmlns:xlink="http://www.w3.org/1999/xlink">
	<desc>
			Created with Pixso.
	</desc>
	<defs>
		<clipPath id="clip54_762">
			<rect id="Frame" width="46.000000" height="36.000000" fill="white" fill-opacity="0"/>
		</clipPath>
	</defs>
	<rect id="Frame" width="46.000000" height="36.000000" fill="#FFFFFF" fill-opacity="0"/>
	<g clip-path="url(#clip54_762)">
		<path id="Vector" d="M29.3286 25.2126L16.9731 25.2126L16.9731 3.01416L29.3286 3.01416L29.3286 25.2126Z" fill="#8B8D92" fill-opacity="1.000000" fill-rule="nonzero"/>
		<path id="Vector" d="M17.7725 14.1138C17.7725 9.61475 19.8735 5.59521 23.1621 3.01465C20.7642 1.11914 17.7266 0 14.438 0C6.65039 0 0.324219 6.32617 0.324219 14.1138C0.324219 21.9014 6.65039 28.2275 14.438 28.2275C17.7266 28.2275 20.7642 27.1084 23.1621 25.2129C19.8735 22.6323 17.7725 18.6128 17.7725 14.1138Z" fill="#BABBBE" fill-opacity="1.000000" fill-rule="nonzero"/>
		<path id="Vector" d="M46 14.1138C46 21.9014 39.6738 28.2275 31.8862 28.2275C28.5977 28.2275 25.5601 27.1084 23.1621 25.2129C26.4507 22.6323 28.5518 18.6128 28.5518 14.1138C28.5518 9.61475 26.4507 5.59521 23.1621 3.01465C25.5601 1.11914 28.5977 0 31.8862 0C39.6738 0 46 6.32617 46 14.1138Z" fill="#74767C" fill-opacity="1.000000" fill-rule="nonzero"/>
		<path id="Vector" d="M33.5078 31.9045C33.668 31.9045 33.9189 31.9272 34.0786 31.9958L33.8276 32.7722C33.645 32.7039 33.4849 32.6809 33.3252 32.6809C32.7998 32.6809 32.5259 33.0234 32.5259 33.6401L32.5259 35.7412L31.7036 35.7412L31.7036 31.9958L32.5029 31.9958L32.5029 32.4526C32.7314 32.1099 33.0513 31.9045 33.5078 31.9045ZM30.4932 32.7266L29.1685 32.7266L29.1685 34.4165C29.1685 34.782 29.3057 35.0332 29.7168 35.0332C29.9224 35.0332 30.1963 34.9646 30.4478 34.8276L30.6758 35.5356C30.4248 35.7183 30.0137 35.8325 29.6484 35.8325C28.689 35.8325 28.3467 35.3074 28.3467 34.4395L28.3467 32.7266L27.5928 32.7266L27.5928 31.9729L28.3467 31.9729L28.3467 30.8311L29.1685 30.8311L29.1685 31.9729L30.4932 31.9729L30.4932 32.7266ZM20.0566 33.5259C20.1479 32.9778 20.4673 32.6123 21.061 32.6123C21.5864 32.6123 21.9292 32.9321 22.0205 33.5259L20.0566 33.5259ZM22.8652 33.8684C22.8652 32.7039 22.1348 31.9045 21.084 31.9045C19.9878 31.9045 19.2114 32.7039 19.2114 33.8684C19.2114 35.0562 20.0107 35.8325 21.1299 35.8325C21.7007 35.8325 22.2031 35.6956 22.6597 35.3074L22.249 34.7134C21.9292 34.9646 21.541 35.1018 21.1528 35.1018C20.6274 35.1018 20.1479 34.8506 20.0337 34.1882L22.8198 34.1882C22.8428 34.074 22.8652 33.9827 22.8652 33.8684ZM26.4512 32.9551C26.2227 32.8179 25.7656 32.6353 25.2861 32.6353C24.8296 32.6353 24.5781 32.7952 24.5781 33.0691C24.5781 33.3203 24.8525 33.3889 25.2178 33.4346L25.606 33.4802C26.4282 33.5945 26.9077 33.937 26.9077 34.5994C26.9077 35.3074 26.291 35.8325 25.1948 35.8325C24.5781 35.8325 24.0073 35.6726 23.5732 35.353L23.9614 34.7134C24.2358 34.9189 24.647 35.1018 25.2178 35.1018C25.7656 35.1018 26.063 34.9419 26.063 34.645C26.063 34.4395 25.8574 34.3252 25.4004 34.2568L25.0122 34.2109C24.167 34.0969 23.7104 33.7087 23.7104 33.1147C23.7104 32.3611 24.3271 31.9045 25.2632 31.9045C25.8574 31.9045 26.4053 32.0415 26.7935 32.2927L26.4512 32.9551ZM36.4995 32.658C36.3398 32.658 36.1797 32.6809 36.043 32.7495C35.9058 32.8179 35.769 32.8865 35.6772 33.0007C35.5859 33.1147 35.4946 33.229 35.4263 33.3889C35.3579 33.5259 35.335 33.7087 35.335 33.8684C35.335 34.0513 35.3579 34.2109 35.4263 34.3481C35.4946 34.4851 35.5635 34.6221 35.6772 34.7363C35.7915 34.8506 35.9058 34.9189 36.043 34.9875C36.1797 35.0562 36.3398 35.0789 36.4995 35.0789C36.6597 35.0789 36.8193 35.0562 36.9565 34.9875C37.0933 34.9189 37.2305 34.8506 37.3218 34.7363C37.436 34.6221 37.5044 34.5081 37.5732 34.3481C37.6416 34.2109 37.6646 34.0283 37.6646 33.8684C37.6646 33.6858 37.6416 33.5259 37.5732 33.3889C37.5044 33.252 37.436 33.1147 37.3218 33.0007C37.2075 32.8865 37.0933 32.8179 36.9565 32.7495C36.8193 32.7039 36.6597 32.658 36.4995 32.658ZM36.4995 31.9045C36.7964 31.9045 37.0708 31.9502 37.2988 32.0642C37.5503 32.1558 37.7559 32.2927 37.9385 32.4753C38.1211 32.658 38.2583 32.8635 38.3726 33.092C38.4639 33.3433 38.5322 33.5945 38.5322 33.8684C38.5322 34.1426 38.4863 34.4165 38.3726 34.645C38.2808 34.8962 38.1211 35.1018 37.9385 35.2615C37.7559 35.4443 37.5503 35.5813 37.2988 35.6726C37.0479 35.7639 36.7739 35.8325 36.4995 35.8325C36.2026 35.8325 35.9287 35.7869 35.7002 35.6726C35.4492 35.5813 35.2437 35.4443 35.061 35.2615C34.8779 35.0789 34.7412 34.8733 34.627 34.645C34.5356 34.3938 34.4673 34.1426 34.4673 33.8684C34.4673 33.5945 34.5127 33.3203 34.627 33.092C34.7183 32.8408 34.8779 32.6353 35.061 32.4753C35.2437 32.2927 35.4492 32.1558 35.7002 32.0642C35.9287 31.9502 36.2026 31.9045 36.4995 31.9045ZM15.3062 33.8684C15.3062 33.2063 15.7402 32.658 16.4482 32.658C17.1333 32.658 17.5669 33.1833 17.5669 33.8684C17.5669 34.5537 17.1104 35.0562 16.4482 35.0562C15.7402 35.0562 15.3062 34.5308 15.3062 33.8684ZM18.3438 33.8684L18.3438 31.9958L17.5215 31.9958L17.5215 32.4526C17.27 32.1099 16.8818 31.9045 16.334 31.9045C15.2832 31.9045 14.4609 32.7266 14.4609 33.8684C14.4609 35.0105 15.2832 35.8325 16.334 35.8325C16.8589 35.8325 17.2476 35.627 17.5215 35.2844L17.5215 35.7412L18.3438 35.7412L18.3438 33.8684ZM13.7529 35.7412L13.7529 33.3889C13.7529 32.4983 13.1821 31.9045 12.2686 31.9045C11.7891 31.9045 11.2866 32.0415 10.9443 32.5667C10.6929 32.1558 10.2817 31.9045 9.71094 31.9045C9.32275 31.9045 8.91162 32.0186 8.61475 32.4526L8.61475 31.9958L7.79248 31.9958L7.79248 35.7412L8.61475 35.7412L8.61475 33.6628C8.61475 33.0234 8.97998 32.658 9.52832 32.658C10.0762 32.658 10.3501 33.0007 10.3501 33.6401L10.3501 35.7183L11.1724 35.7183L11.1724 33.6401C11.1724 33.0007 11.5605 32.6353 12.0859 32.6353C12.6343 32.6353 12.9082 32.9778 12.9082 33.6172L12.9082 35.6956L13.7529 35.6956L13.7529 35.7412Z" fill="#A2A4A7" fill-opacity="1.000000" fill-rule="nonzero"/>
	</g>
</svg>
