<svg width="20.000000" height="20.000000" viewBox="0 0 20 20" fill="none" xmlns="http://www.w3.org/2000/svg" xmlns:xlink="http://www.w3.org/1999/xlink">
	<desc>
			Created with Pixso.
	</desc>
	<defs>
		<clipPath id="clip2_2913">
			<rect id="Icon" width="20.000000" height="20.000000" fill="white" fill-opacity="0"/>
		</clipPath>
	</defs>
	<g clip-path="url(#clip2_2913)">
		<path id="Vector" d="M10 19.166C10 19.166 2.5 14.166 2.5 8.33301C2.5 6.34375 3.29004 4.43652 4.69678 3.0293C6.10303 1.62305 8.01074 0.833008 10 0.833008C11.9893 0.833008 13.897 1.62305 15.3032 3.0293C16.71 4.43652 17.5 6.34375 17.5 8.33301C17.5 14.166 10 19.166 10 19.166Z" stroke="#5D6066" stroke-opacity="1.000000" stroke-width="1.500000" stroke-linejoin="round"/>
		<path id="Vector" d="M10 10.833C8.61914 10.833 7.5 9.71387 7.5 8.33301C7.5 6.95215 8.61914 5.83301 10 5.83301C11.3809 5.83301 12.5 6.95215 12.5 8.33301C12.5 9.71387 11.3809 10.833 10 10.833Z" stroke="#5D6066" stroke-opacity="1.000000" stroke-width="1.500000" stroke-linejoin="round"/>
	</g>
</svg>
