<svg width="46.000000" height="36.000000" viewBox="0 0 46 36" fill="none" xmlns="http://www.w3.org/2000/svg" xmlns:xlink="http://www.w3.org/1999/xlink">
	<desc>
			Created with Pixso.
	</desc>
	<defs>
		<clipPath id="clip54_756">
			<rect id="Frame" width="46.000000" height="36.000000" fill="white" fill-opacity="0"/>
		</clipPath>
	</defs>
	<rect id="Frame" width="46.000000" height="36.000000" fill="#FFFFFF" fill-opacity="0"/>
	<g clip-path="url(#clip54_756)">
		<path id="XMLID_1775_" d="M8.34766 35.7734L8.34766 33.4194C8.34766 32.5188 7.79932 31.9292 6.85742 31.9292C6.38672 31.9292 5.87451 32.0845 5.52246 32.5964C5.24854 32.1667 4.85547 31.9292 4.26562 31.9292C3.87256 31.9292 3.47949 32.0479 3.16846 32.4775L3.16846 32.0068L2.3457 32.0068L2.3457 35.7734L3.16846 35.7734L3.16846 33.6936C3.16846 33.0261 3.52051 32.7107 4.06885 32.7107C4.61768 32.7107 4.89209 33.0627 4.89209 33.6936L4.89209 35.7734L5.71484 35.7734L5.71484 33.6936C5.71484 33.0261 6.10791 32.7107 6.61523 32.7107C7.16357 32.7107 7.43799 33.0627 7.43799 33.6936L7.43799 35.7734L8.34766 35.7734ZM20.5527 32.0068L19.2183 32.0068L19.2183 30.8687L18.3955 30.8687L18.3955 32.0068L17.6504 32.0068L17.6504 32.752L18.3955 32.752L18.3955 34.4797C18.3955 35.3438 18.7471 35.8513 19.689 35.8513C20.041 35.8513 20.4341 35.7324 20.7085 35.5769L20.4707 34.8684C20.2329 35.0239 19.9585 35.0649 19.7622 35.0649C19.3691 35.0649 19.2134 34.8271 19.2134 34.4387L19.2134 32.752L20.5483 32.752L20.5483 32.0068L20.5527 32.0068ZM27.5376 31.9246C27.0669 31.9246 26.7515 32.1624 26.5547 32.4731L26.5547 32.0022L25.7319 32.0022L25.7319 35.769L26.5547 35.769L26.5547 33.6479C26.5547 33.0217 26.8291 32.665 27.3413 32.665C27.4966 32.665 27.6934 32.7063 27.853 32.7427L28.0908 31.9565C27.9263 31.9246 27.6934 31.9246 27.5376 31.9246ZM16.9829 32.3176C16.5898 32.0435 16.041 31.9246 15.4512 31.9246C14.5098 31.9246 13.8833 32.3953 13.8833 33.1404C13.8833 33.7668 14.3545 34.1233 15.1772 34.2375L15.5703 34.2788C16 34.3564 16.2378 34.4753 16.2378 34.6719C16.2378 34.946 15.9224 35.1426 15.3735 35.1426C14.8252 35.1426 14.3911 34.946 14.1167 34.7495L13.7236 35.3757C14.1533 35.6912 14.7427 35.8467 15.3325 35.8467C16.4297 35.8467 17.0605 35.3347 17.0605 34.6306C17.0605 33.9634 16.5483 33.6113 15.7666 33.4924L15.3735 33.4514C15.0215 33.4102 14.7476 33.3325 14.7476 33.0994C14.7476 32.825 15.0215 32.6697 15.4561 32.6697C15.9268 32.6697 16.3975 32.8662 16.6353 32.9851L16.9829 32.3176ZM38.8745 31.9246C38.4033 31.9246 38.0879 32.1624 37.8916 32.4731L37.8916 32.0022L37.0688 32.0022L37.0688 35.769L37.8916 35.769L37.8916 33.6479C37.8916 33.0217 38.166 32.665 38.6777 32.665C38.833 32.665 39.0298 32.7063 39.1899 32.7427L39.4272 31.9656C39.2676 31.9246 39.0342 31.9246 38.8745 31.9246ZM28.3604 33.8901C28.3604 35.0283 29.147 35.8513 30.3628 35.8513C30.9111 35.8513 31.3042 35.7324 31.6978 35.4216L31.3042 34.7542C30.9888 34.9919 30.6782 35.1062 30.3218 35.1062C29.6543 35.1062 29.1836 34.6353 29.1836 33.8901C29.1836 33.1816 29.6543 32.7107 30.3218 32.6743C30.6733 32.6743 30.9888 32.793 31.3042 33.0261L31.6978 32.3589C31.3042 32.0435 30.9111 31.9292 30.3628 31.9292C29.147 31.9246 28.3604 32.752 28.3604 33.8901ZM35.9717 33.8901L35.9717 32.0068L35.1489 32.0068L35.1489 32.4775C34.8745 32.1257 34.4814 31.9292 33.9692 31.9292C32.9087 31.9292 32.0859 32.752 32.0859 33.8901C32.0859 35.0283 32.9087 35.8513 33.9692 35.8513C34.5181 35.8513 34.9111 35.6545 35.1489 35.3027L35.1489 35.7734L35.9717 35.7734L35.9717 33.8901ZM32.9502 33.8901C32.9502 33.2227 33.3799 32.6743 34.0884 32.6743C34.7559 32.6743 35.2266 33.1863 35.2266 33.8901C35.2266 34.5576 34.7559 35.1062 34.0884 35.1062C33.3843 35.0649 32.9502 34.553 32.9502 33.8901ZM23.1035 31.9246C22.0063 31.9246 21.2202 32.7107 21.2202 33.8855C21.2202 35.0649 22.0063 35.8467 23.1445 35.8467C23.6934 35.8467 24.2417 35.6912 24.6763 35.3347L24.2832 34.7449C23.9678 34.9827 23.5747 35.1382 23.186 35.1382C22.6738 35.1382 22.1665 34.9004 22.0479 34.2375L24.8315 34.2375C24.8315 34.1187 24.8315 34.041 24.8315 33.9221C24.8682 32.7107 24.1597 31.9246 23.1035 31.9246ZM23.1035 32.6331C23.6157 32.6331 23.9678 32.9485 24.0454 33.5337L22.0845 33.5337C22.1621 33.0261 22.5142 32.6331 23.1035 32.6331ZM43.5459 33.8901L43.5459 30.5166L42.7231 30.5166L42.7231 32.4775C42.4492 32.1257 42.0562 31.9292 41.5439 31.9292C40.4834 31.9292 39.6606 32.752 39.6606 33.8901C39.6606 35.0283 40.4834 35.8513 41.5439 35.8513C42.0923 35.8513 42.4858 35.6545 42.7231 35.3027L42.7231 35.7734L43.5459 35.7734L43.5459 33.8901ZM40.5244 33.8901C40.5244 33.2227 40.9541 32.6743 41.6626 32.6743C42.3301 32.6743 42.8013 33.1863 42.8013 33.8901C42.8013 34.5576 42.3301 35.1062 41.6626 35.1062C40.9541 35.0649 40.5244 34.553 40.5244 33.8901ZM12.9785 33.8901L12.9785 32.0068L12.1558 32.0068L12.1558 32.4775C11.8813 32.1257 11.4883 31.9292 10.9761 31.9292C9.91553 31.9292 9.09277 32.752 9.09277 33.8901C9.09277 35.0283 9.91553 35.8513 10.9761 35.8513C11.5249 35.8513 11.918 35.6545 12.1558 35.3027L12.1558 35.7734L12.9785 35.7734L12.9785 33.8901ZM9.92041 33.8901C9.92041 33.2227 10.3501 32.6743 11.0586 32.6743C11.7261 32.6743 12.1968 33.1863 12.1968 33.8901C12.1968 34.5576 11.7261 35.1062 11.0586 35.1062C10.3501 35.0649 9.92041 34.553 9.92041 33.8901Z" fill="#A2A4A7" fill-opacity="1.000000" fill-rule="nonzero"/>
		<path id="rect19" d="M16.7471 3.02148L29.1074 3.02148L29.1074 25.2285L16.7471 25.2285L16.7471 3.02148Z" fill="#8B8D92" fill-opacity="1.000000" fill-rule="evenodd"/>
		<path id="XMLID_330_" d="M17.5698 14.125C17.5698 9.61328 19.6909 5.60889 22.9458 3.02148C20.5503 1.13818 17.5288 0 14.2329 0C6.42529 0 0.10791 6.31738 0.10791 14.125C0.10791 21.9326 6.42529 28.2502 14.2329 28.2502C17.5288 28.2502 20.5503 27.1118 22.9458 25.2285C19.6865 22.6777 17.5698 18.637 17.5698 14.125Z" fill="#BABBBE" fill-opacity="1.000000" fill-rule="nonzero"/>
		<path id="path22" d="M45.7837 14.125C45.7837 21.9326 39.4663 28.2502 31.6587 28.2502C28.3628 28.2502 25.3413 27.1118 22.9458 25.2285C26.2417 22.6367 28.3218 18.637 28.3218 14.125C28.3218 9.61328 26.2007 5.60889 22.9458 3.02148C25.3364 1.13818 28.3579 0 31.6538 0C39.4663 0 45.7837 6.35864 45.7837 14.125Z" fill="#74767C" fill-opacity="1.000000" fill-rule="nonzero"/>
	</g>
</svg>
