<svg width="64.000000" height="18.000000" viewBox="0 0 64 18" fill="none" xmlns="http://www.w3.org/2000/svg" xmlns:xlink="http://www.w3.org/1999/xlink">
	<desc>
			Created with Pixso.
	</desc>
	<defs>
		<clipPath id="clip54_768">
			<rect id="Frame" width="64.000000" height="18.000000" fill="white" fill-opacity="0"/>
		</clipPath>
	</defs>
	<rect id="Frame" width="64.000000" height="18.000000" fill="#FFFFFF" fill-opacity="0"/>
	<g clip-path="url(#clip54_768)">
		<path id="Combined-Shape" d="M6.13916 0.65625C6.69922 0.652832 8.36426 0.50293 9.06982 2.88306C9.54492 4.48657 10.3013 7.11279 11.3398 10.7622L11.7627 10.7622C12.8765 6.91479 13.6416 4.28857 14.0581 2.88306C14.7705 0.478027 16.5518 0.65625 17.2646 0.65625L22.7627 0.65625L22.7627 17.7585L17.1587 17.7585L17.1587 7.67993L16.7832 7.67993L13.6592 17.7585L9.44336 17.7585L6.31982 7.67236L5.94385 7.67236L5.94385 17.7585L0.340332 17.7585L0.340332 0.65625L6.13916 0.65625ZM30.8091 0.65625L30.8091 10.7424L31.2563 10.7424L35.0557 2.44873C35.7935 0.798096 37.3652 0.65625 37.3652 0.65625L42.7881 0.65625L42.7881 17.7588L37.0674 17.7588L37.0674 7.67236L36.6206 7.67236L32.895 15.9663C32.1577 17.6094 30.5112 17.7588 30.5112 17.7588L25.0884 17.7588L25.0884 0.65625L30.8091 0.65625ZM62.561 8.78345C61.7632 11.0447 59.2573 12.6641 56.4829 12.6641L50.4834 12.6641L50.4834 17.7588L45.0435 17.7588L45.0435 8.78345L62.561 8.78345Z" fill="#8B8D92" fill-opacity="1.000000" fill-rule="evenodd"/>
		<path id="path24" d="M56.7451 0.65625L44.7583 0.65625C45.0435 4.46387 48.3228 7.72339 51.7168 7.72339L62.939 7.72339C63.5864 4.55884 61.3574 0.65625 56.7451 0.65625Z" fill="#5D6066" fill-opacity="1.000000" fill-rule="evenodd"/>
	</g>
</svg>
