<svg width="64.000000" height="20.479980" viewBox="0 0 64 20.48" fill="none" xmlns="http://www.w3.org/2000/svg" xmlns:xlink="http://www.w3.org/1999/xlink">
	<desc>
			Created with Pixso.
	</desc>
	<defs/>
	<path id="Vector" d="M41.6855 0C37.1411 0 33.0806 2.32617 33.0806 6.62402C33.0806 11.553 40.2827 11.8936 40.2827 14.3696C40.2827 15.4121 39.0728 16.3455 37.0063 16.3455C34.0742 16.3455 31.8823 15.0415 31.8823 15.0415L30.9448 19.3784C30.9448 19.3784 33.4692 20.48 36.8213 20.48C41.79 20.48 45.6992 18.0396 45.6992 13.6682C45.6992 8.45996 38.4668 8.12964 38.4668 5.8313C38.4668 5.01465 39.46 4.11963 41.5205 4.11963C43.8452 4.11963 45.7417 5.06812 45.7417 5.06812L46.6597 0.87915C46.6597 0.87915 44.5957 0 41.6855 0ZM0.109863 0.316162L0 0.948486C0 0.948486 1.91162 1.29395 3.63379 1.9834C5.85059 2.77368 6.00879 3.23389 6.38184 4.66309L10.4507 20.1541L15.9048 20.1541L24.3076 0.316162L18.8657 0.316162L13.4668 13.804L11.2637 2.37109C11.0615 1.0625 10.0381 0.316162 8.78516 0.316162L0.109863 0.316162ZM26.4956 0.316162L22.2271 20.1541L27.416 20.1541L31.6699 0.316162L26.4956 0.316162ZM55.4375 0.316162C54.186 0.316162 53.5229 0.977783 53.0366 2.13403L45.4341 20.1541L50.876 20.1541L51.9287 17.1506L58.5581 17.1506L59.1987 20.1541L64 20.1541L59.811 0.316162L55.4375 0.316162ZM56.145 5.67578L57.7578 13.1199L53.4365 13.1199L56.145 5.67578Z" fill="#8B8D92" fill-opacity="1.000000" fill-rule="nonzero"/>
</svg>
