<svg width="16.000000" height="16.000000" viewBox="0 0 16 16" fill="none" xmlns="http://www.w3.org/2000/svg" xmlns:xlink="http://www.w3.org/1999/xlink">
	<desc>
			Created with Pixso.
	</desc>
	<defs>
		<clipPath id="clip1_1333">
			<rect id="check-circle" width="16.000000" height="16.000000" fill="white" fill-opacity="0"/>
		</clipPath>
	</defs>
	<rect id="check-circle" width="16.000000" height="16.000000" fill="#FFFFFF" fill-opacity="0"/>
	<g clip-path="url(#clip1_1333)">
		<path id="Vector" d="M14.6665 7.38672L14.6665 8C14.6658 9.4375 14.2002 10.8364 13.3394 11.9878C12.4788 13.1392 11.2688 13.9819 9.89014 14.3892C8.51147 14.7969 7.03809 14.748 5.68945 14.25C4.34106 13.7515 3.1897 12.8306 2.40723 11.625C1.62476 10.4189 1.25317 8.99219 1.34766 7.55762C1.44238 6.12305 1.99805 4.75781 2.93213 3.66455C3.86621 2.57178 5.12842 1.81055 6.53076 1.49365C7.93286 1.17676 9.40015 1.32178 10.7131 1.90674" stroke="#3BAA35" stroke-opacity="1.000000" stroke-width="1.500000" stroke-linejoin="round" stroke-linecap="round"/>
		<path id="Vector" d="M14.6667 2.6665L8 9.33984L6 7.33984" stroke="#3BAA35" stroke-opacity="1.000000" stroke-width="1.500000" stroke-linejoin="round" stroke-linecap="round"/>
	</g>
</svg>
