<svg width="80.000000" height="80.000000" viewBox="0 0 80 80" fill="none" xmlns="http://www.w3.org/2000/svg" xmlns:xlink="http://www.w3.org/1999/xlink">
	<desc>
			Created with Pixso.
	</desc>
	<defs>
		<clipPath id="clip1_3197">
			<rect id="Decorative Icons" width="80.000000" height="80.000000" fill="white" fill-opacity="0"/>
		</clipPath>
	</defs>
	<g clip-path="url(#clip1_3197)">
		<path id="Vector" d="M79.9858 15.0109C79.5454 16.2937 79.5483 17.6484 79.375 18.9718C78.7407 23.8156 78.1514 28.6593 77.5454 33.5031C77.2173 36.1328 76.8779 38.7609 76.5625 41.3937C76.3892 42.8406 75.9829 43.3375 74.5654 43.5312C70.5249 44.0859 66.4795 44.6094 62.436 45.1484C57.5171 45.8047 52.5986 46.4625 47.6812 47.1218C42.4258 47.8219 37.1719 48.5198 31.9185 49.2156C29.3452 49.5593 26.7734 49.9249 24.2017 50.2797C23.1953 49.1188 22.8032 47.6969 22.5107 46.239C20.8608 38.0234 19.2173 29.8068 17.5796 21.589C16.9546 18.464 16.3545 15.3265 15.7437 12.1953C15.8481 12.1953 15.9517 12.1859 16.0562 12.1859C36.6626 12.187 57.2681 12.1875 77.8735 12.1875C78.8857 12.1875 79.5532 12.5828 79.9858 13.4578L79.9858 15.0109ZM31.2622 41.4672C31.2544 41.3922 31.2437 41.1827 31.2109 40.9781C30.5942 37.2656 29.9756 33.5531 29.3545 29.8406C28.8481 26.8187 28.353 23.7969 27.8188 20.7781C27.5811 19.4313 26.2563 18.7985 25.1841 19.4718C24.5234 19.8922 24.2778 20.6312 24.4419 21.6094C25.1089 25.5781 25.7715 29.5469 26.4297 33.5156C26.8901 36.2812 27.355 39.0464 27.8247 41.8109C28.0142 42.9141 28.7749 43.5453 29.7437 43.4437C30.6562 43.35 31.272 42.6031 31.2622 41.4672ZM39.9858 39.7812C39.4873 34.3125 39.0044 28.9219 38.5029 23.5391C38.4048 22.4812 38.4219 21.4062 38.1372 20.3734C38.0479 20.016 37.8374 19.7006 37.542 19.4807C37.2461 19.2607 36.8838 19.15 36.5156 19.1671C35.7671 19.1671 35.2329 19.5437 34.9312 20.225C34.7578 20.6188 34.7998 21.0421 34.8359 21.4562C35.106 24.5625 35.375 27.6687 35.6592 30.7734C35.9404 33.8531 36.2202 36.9327 36.5376 40.0078C36.6528 41.1281 37.4375 41.8015 38.3765 41.7156C39.3857 41.6218 40.0156 40.8265 39.9858 39.7812ZM45.1982 29.5312C45.1982 32.3438 45.1841 35.1562 45.1982 37.9562C45.2075 39.1656 45.9126 39.9594 46.9092 39.9874C47.9326 40.0156 48.6548 39.2062 48.6997 37.9562C48.6997 37.775 48.6997 37.5922 48.6997 37.4109L48.6997 28.125C48.6997 25.8359 48.6997 23.5485 48.6997 21.2594C48.6997 20.1312 48.2202 19.4313 47.3687 19.2281C46.1372 18.9313 45.2061 19.7812 45.1982 21.2594C45.1875 24.0187 45.1982 26.775 45.1982 29.5312ZM59.0625 21.4562C59.1187 20.0359 58.564 19.2687 57.5718 19.1641C56.5625 19.0625 55.7515 19.7797 55.625 20.9375C55.0571 25.9688 54.4941 31.0005 53.936 36.0328C53.7998 37.2531 54.4419 38.1469 55.4844 38.2546C56.436 38.3546 57.2251 37.6656 57.3765 36.4984C57.6279 34.5671 57.8296 32.6312 58.0454 30.6953C58.3936 27.5515 58.7407 24.4031 59.0625 21.4562ZM69.5547 21.025C69.5317 20.7889 69.4941 20.5547 69.4419 20.3234C69.335 19.975 69.1191 19.6703 68.8257 19.4542C68.5322 19.238 68.1768 19.1221 67.8125 19.1234C66.9639 19.1359 66.3438 19.6547 66.0938 20.6484C64.9561 25.1484 63.8281 29.6505 62.7095 34.1547C62.5679 34.6069 62.6006 35.0957 62.8013 35.525C62.9478 35.848 63.1934 36.1161 63.5024 36.2903C63.8115 36.4644 64.168 36.5356 64.52 36.4938C65.3125 36.4359 65.8545 35.9031 66.0825 34.9828C66.9263 31.639 67.7627 28.2932 68.5923 24.9453C68.917 23.614 69.2466 22.2812 69.5591 21.025L69.5547 21.025Z" fill="#FBE303" fill-opacity="1.000000" fill-rule="nonzero"/>
		<path id="Vector" d="M0.0141602 2.82825C0.72998 1.81409 1.75635 1.71252 2.89697 1.7345C5.83594 1.77979 8.77686 1.74695 11.7158 1.75012C13.1362 1.75012 13.6689 2.17822 13.9658 3.59229C14.5674 6.45789 15.1562 9.3313 15.7437 12.2017C16.355 15.3267 16.9565 18.4673 17.5796 21.5953C19.2173 29.8141 20.8608 38.0308 22.5112 46.2454C22.8032 47.7032 23.1953 49.1251 24.2017 50.286C25.9751 52.8173 28.4893 53.8892 31.4971 53.897C38.7563 53.9156 46.0156 53.897 53.2749 53.897C59.1562 53.897 65.0371 53.897 70.9175 53.897C72.2393 53.897 73.0249 54.5907 72.9971 55.6923C72.9922 56.0856 72.8481 56.4645 72.5908 56.7618C72.3335 57.0593 71.9795 57.256 71.5908 57.3173C71.3076 57.3551 71.0215 57.3702 70.7358 57.3625C57.6733 57.3625 44.6108 57.3625 31.5483 57.3625C25.728 57.3625 20.9233 53.8735 19.48 48.5016C18.855 46.147 18.4609 43.7281 17.9814 41.3345C15.7104 30.0073 13.4424 18.6771 11.1768 7.34387C11.0391 6.65784 11.0859 5.74695 10.6626 5.35791C10.1938 4.92505 9.27051 5.2345 8.54541 5.22815C6.56885 5.21106 4.58936 5.18445 2.60791 5.22815C1.52832 5.26575 0.612793 5.07043 0.0141602 4.07825L0.0141602 2.82825Z" fill="#454950" fill-opacity="1.000000" fill-rule="nonzero"/>
		<path id="Vector" d="M20.8955 69.5751C20.8931 68.4343 21.1157 67.3044 21.5498 66.2496C21.9844 65.1949 22.6221 64.2361 23.4268 63.4279C25.0522 61.7955 27.2598 60.8759 29.5635 60.8711C31.8672 60.8663 34.0781 61.7769 35.7104 63.4025C36.519 64.2074 37.1606 65.1636 37.5991 66.2164C38.0381 67.2694 38.2651 68.3984 38.2676 69.5391C38.272 71.8428 37.3618 74.054 35.7358 75.6863C34.1104 77.3185 31.9033 78.2383 29.5996 78.243C27.2959 78.2478 25.0845 77.3372 23.4521 75.7117C21.8198 74.0861 20.9004 71.8787 20.8955 69.5751Z" fill="#454950" fill-opacity="1.000000" fill-rule="nonzero"/>
		<path id="Vector" d="M73.0127 69.5938C73.0078 71.313 72.4927 72.9922 71.5327 74.4186C70.5732 75.845 69.2114 76.9546 67.6206 77.6067C66.0298 78.2589 64.2812 78.4244 62.5967 78.0824C60.9116 77.7402 59.3662 76.9059 58.1558 75.6849C56.9453 74.464 56.1245 72.9114 55.7969 71.2235C55.4692 69.5358 55.6499 67.7887 56.3159 66.2036C56.9819 64.6185 58.103 63.2667 59.5376 62.3193C60.9722 61.3718 62.6558 60.8713 64.375 60.8812C66.6743 60.8961 68.874 61.8212 70.4927 63.454C72.1118 65.0869 73.0176 67.2944 73.0127 69.5938Z" fill="#454950" fill-opacity="1.000000" fill-rule="nonzero"/>
	</g>
</svg>
