<svg width="80.000000" height="80.000000" viewBox="0 0 80 80" fill="none" xmlns="http://www.w3.org/2000/svg" xmlns:xlink="http://www.w3.org/1999/xlink">
	<desc>
			Created with Pixso.
	</desc>
	<defs>
		<clipPath id="clip1_3200">
			<rect id="Decorative Icons" width="80.000000" height="80.000000" fill="white" fill-opacity="0"/>
		</clipPath>
	</defs>
	<g clip-path="url(#clip1_3200)">
		<path id="Vector" d="M33.2812 79.9874C32.8843 79.7078 32.4019 79.7468 31.9595 79.6406C29.1562 78.9647 26.647 77.4 24.8062 75.1803C22.9653 72.9606 21.8921 70.205 21.7471 67.325C21.7188 66.75 21.522 66.6625 21.0142 66.6641C16.6172 66.6827 12.2197 66.6827 7.82178 66.6641C4.69678 66.6547 2.32812 64.7312 1.82373 61.7202C1.4751 59.6437 2.13623 57.8468 3.72217 56.4609C6.75635 53.8047 9.04688 50.6406 10.4126 46.8296C11.2915 44.3773 11.7373 41.7909 11.73 39.1859C11.73 36.1921 11.73 33.199 11.73 30.2062C11.75 18.85 19.3999 9.43896 30.5283 7.11865C33.6206 6.47498 36.7251 6.54529 39.8237 7.1781C40.3486 7.2843 40.2925 7.4906 40.1362 7.85938C38.8223 10.9343 38.2344 14.2705 38.4175 17.6094C38.8984 25.9984 42.8018 32.3624 49.9331 36.7562C52.3486 38.2438 55 39.15 57.7905 39.625C58.2861 39.7078 58.4033 39.8796 58.4297 40.3562C58.7783 46.5125 61.2002 51.7078 65.7612 55.8687C66.9609 56.9624 67.9971 58.125 68.2612 59.7921C68.8452 63.5297 66.189 66.6375 62.3472 66.6671C58.105 66.6937 53.8643 66.6671 49.6221 66.6671C48.4126 66.6671 48.4126 66.6671 48.3032 67.8875C48.0596 70.5605 47.0137 73.0975 45.3022 75.1654C43.5908 77.2333 41.2944 78.7356 38.7144 79.475C38.0518 79.6609 37.3799 79.8125 36.7109 79.9796L33.2812 79.9874Z" fill="#FBE303" fill-opacity="1.000000" fill-rule="nonzero"/>
		<path id="Vector" d="M63.5825 0.0109863C64.4263 0.210938 65.2778 0.387573 66.1157 0.615723C73.5576 2.64697 78.7622 9.72815 78.3657 17.2704C77.9438 25.2734 72.2998 31.75 64.5747 33.0938C55.2778 34.7125 46.4497 28.2422 45.186 18.8876C44 10.1079 49.9595 1.9032 58.6782 0.293823C58.9609 0.242188 59.3032 0.293823 59.522 0.015625L63.5825 0.0109863Z" fill="#454950" fill-opacity="1.000000" fill-rule="nonzero"/>
	</g>
</svg>
