<svg width="80.000488" height="80.000000" viewBox="0 0 80.0005 80" fill="none" xmlns="http://www.w3.org/2000/svg" xmlns:xlink="http://www.w3.org/1999/xlink">
	<desc>
			Created with Pixso.
	</desc>
	<defs/>
	<rect id="Decorative Icons" width="80.000351" height="79.999992" fill="#FFFFFF" fill-opacity="0"/>
	<path id="Vector" d="M0 65.0055L0 15.0007L0.3125 14.9054C0.40332 15.1305 0.625488 15.1696 0.812988 15.2415C5.31885 16.9349 9.82471 18.627 14.3306 20.3173C21.7622 23.1061 29.1938 25.8903 36.6255 28.6697C37.79 29.1027 38.9077 29.6952 40.165 29.8608C39.9492 30.2203 40.0088 30.6206 40.0088 31.0051C40.0088 43.4402 40.0088 55.8751 40.0088 68.3101C40.0088 71.8743 40.0088 75.4385 40.0088 79.0027C40.0088 79.3153 40.1538 79.7092 39.6958 79.8593C39.5957 79.8312 39.4941 79.8077 39.3989 79.7717L0 65.0055ZM20.0122 65.1727C20.0122 63.6095 19.981 62.1338 20.0278 60.6597C20.0464 60.0485 19.8979 59.7108 19.2759 59.5372C18.5786 59.3434 17.9126 59.0386 17.231 58.7838L10.0015 56.0887C10.0015 57.6254 10.0405 59.0746 9.98438 60.5221C9.95752 61.199 10.1235 61.5679 10.813 61.7461C11.4614 61.9133 12.0791 62.2151 12.7109 62.4448L20.0122 65.1727Z" fill="#FBE303" fill-opacity="1.000000" fill-rule="nonzero"/>
	<path id="Vector" d="M39.6821 79.8656C40.1514 79.7094 39.9946 79.3185 39.9946 79.0089C40.0044 75.4448 40.0044 71.8806 39.9946 68.3164C39.9946 55.8824 39.9946 43.4475 39.9946 31.0115C39.9946 30.627 39.9277 30.2299 40.1514 29.8672C43.1465 28.7588 46.1484 27.6709 49.1333 26.5359C51 25.8262 52.9072 25.2244 54.7178 24.3708C55.207 24.5272 54.9912 24.9384 54.9932 25.2306C55.0063 30.4414 55.0098 35.649 55.0024 40.8536L55.0024 41.8181C55.1274 41.8087 55.2515 41.7889 55.373 41.7587C58.4199 40.6206 61.4702 39.4685 64.5161 38.3462C64.9629 38.182 65.0083 37.9022 65.0083 37.5083C64.999 31.8806 64.9941 26.2566 64.9941 20.6362C65.1836 20.5487 65.3682 20.4471 65.562 20.3752C69.8979 18.7495 74.2329 17.1227 78.5664 15.4949C78.9619 15.3385 79.4482 15.3385 79.6875 14.8867L80.0005 15.0071L80.0005 65.0055C69.4346 68.9657 58.8687 72.9259 48.3027 76.8861C45.5796 77.91 42.8687 78.962 40.1514 80L39.6821 80C39.6997 79.9569 39.6997 79.9087 39.6821 79.8656Z" fill="#FCEC41" fill-opacity="1.000000" fill-rule="nonzero"/>
	<path id="Vector" d="M54.7236 24.3708C52.9131 25.2244 51.0059 25.8262 49.1392 26.5359C46.1543 27.6646 43.1523 28.7478 40.1602 29.8608C38.9092 29.6952 37.7852 29.1027 36.6206 28.6697C29.1826 25.908 21.75 23.1239 14.3228 20.3174C9.81689 18.6281 5.31104 16.936 0.805176 15.2416C0.612793 15.1696 0.395508 15.1305 0.304688 14.9054C0.473633 14.8351 0.637695 14.76 0.808105 14.6959C10.9663 10.8879 21.123 7.07837 31.2783 3.26721C34.1406 2.19629 36.9927 1.09119 39.8472 0L40.1602 0C40.3931 0.106323 40.6289 0.226685 40.8604 0.312622L79.6934 14.8804C79.4541 15.3291 78.9678 15.34 78.5723 15.4885C74.2407 17.1237 69.9058 18.7505 65.5679 20.3689C65.374 20.4408 65.1895 20.5425 65 20.63C60.249 18.5071 55.4912 16.3951 50.7495 14.252C50.5229 14.135 50.2725 14.0731 50.0181 14.0715C49.7632 14.0698 49.5117 14.1285 49.2842 14.2427C47.4082 15.0774 45.5024 15.8558 43.6123 16.6609C42.46 17.1517 41.314 17.652 40.063 18.1913C40.29 18.3132 40.376 18.3695 40.4697 18.4087C44.0547 19.8843 47.6475 21.3428 51.2231 22.8435C52.3955 23.3344 53.6182 23.7158 54.7236 24.3708Z" fill="#F1D900" fill-opacity="1.000000" fill-rule="nonzero"/>
	<path id="Vector" d="M20.0049 65.1713L12.7114 62.4449C12.0859 62.209 11.4604 61.9135 10.813 61.7462C10.1235 61.568 9.95801 61.1991 9.98438 60.5222C10.041 59.0746 10.002 57.6255 10.002 56.0889L17.2231 58.7839C17.9048 59.0387 18.5708 59.3435 19.2686 59.5374C19.8936 59.7109 20.0391 60.0486 20.0205 60.6598C19.9736 62.1339 20.0049 63.608 20.0049 65.1713Z" fill="#454950" fill-opacity="1.000000" fill-rule="nonzero"/>
	<path id="Vector" d="M54.7236 24.3707C53.6182 23.722 52.3955 23.3406 51.2227 22.8497C47.6475 21.349 44.0547 19.8905 40.4697 18.4148C40.3755 18.3757 40.2896 18.3195 40.063 18.1975C41.314 17.6582 42.46 17.158 43.6118 16.6671C45.5024 15.8621 47.4062 15.0836 49.2842 14.2488C49.5117 14.1346 49.7632 14.076 50.0176 14.0776C50.2725 14.0793 50.5229 14.1411 50.749 14.2582C55.4912 16.4014 60.2485 18.5133 65 20.6362C65 26.2638 65.0049 31.8878 65.0142 37.5082C65.0142 37.9021 64.9688 38.1819 64.5215 38.3461C61.4683 39.4684 58.4243 40.6206 55.3784 41.7585C55.2568 41.7888 55.1328 41.8086 55.0078 41.818L55.0078 40.8472C55.0078 35.6365 55.0049 30.4288 54.9985 25.2242C54.9971 24.9319 55.2129 24.5271 54.7236 24.3707Z" fill="#454950" fill-opacity="1.000000" fill-rule="nonzero"/>
</svg>
