<svg width="80.000000" height="80.000000" viewBox="0 0 80 80" fill="none" xmlns="http://www.w3.org/2000/svg" xmlns:xlink="http://www.w3.org/1999/xlink">
	<desc>
			Created with Pixso.
	</desc>
	<defs>
		<clipPath id="clip1_3206">
			<rect id="Decorative Icons" width="80.000000" height="80.000000" fill="white" fill-opacity="0"/>
		</clipPath>
	</defs>
	<g clip-path="url(#clip1_3206)">
		<path id="Vector" d="M0.0185547 74.3563C0.915527 72.1484 1.58105 69.8594 2.3374 67.6016C4.87354 60.0443 7.39404 52.4813 9.89844 44.9125C10.5469 42.9688 11.2061 42.5 13.2671 42.5C14.3076 42.5 15.3496 42.5266 16.3921 42.4891C16.8936 42.4719 17.1733 42.6094 17.4155 43.0844C21.8311 51.6078 27.8125 58.9219 34.8438 65.411C37.8828 68.2235 42.2031 68.1532 45.2231 65.3531C51.6372 59.4156 57.1543 52.7438 61.498 45.1344C61.8965 44.4344 62.2793 43.7281 62.6265 42.9969C62.8076 42.611 63.0342 42.475 63.4609 42.486C64.6826 42.5156 65.9062 42.486 67.1294 42.4969C68.6655 42.4969 69.4873 43.0859 69.9795 44.5453C71.0312 47.6703 72.0669 50.7953 73.1045 53.9313C75.3057 60.5333 77.5073 67.1349 79.709 73.736C79.7793 73.9453 79.7656 74.2047 79.9858 74.361L79.9858 75.7672C79.1685 77.275 77.8403 77.5219 76.2451 77.511C68.1826 77.4563 60.1201 77.486 52.0562 77.486C35.7227 77.486 19.3892 77.486 3.05615 77.486C2.19531 77.486 1.38574 77.3876 0.765625 76.7297C0.5 76.4203 0.250977 76.0975 0.0185547 75.7626L0.0185547 74.3563Z" fill="#FBE303" fill-opacity="1.000000" fill-rule="nonzero"/>
		<path id="Vector" d="M62.5005 25.2109C62.4243 28.7567 61.7422 32.2634 60.4849 35.5797C57.5957 43.3624 52.8975 49.9906 47.377 56.0938C45.6616 58.0167 43.8486 59.8508 41.9458 61.589C40.6147 62.7875 39.3896 62.8093 38.085 61.5984C31.8867 55.8422 26.4912 49.4359 22.4258 41.9828C20.0957 37.7109 18.4023 33.2109 17.7129 28.3562C16.1538 17.3969 22.813 6.7843 33.3442 3.52502C44.7505 0 57.0039 6.07031 61.0942 17.2765C62.0317 19.8219 62.4521 22.4453 62.5005 25.2109ZM40.0005 35C41.98 35.0034 43.9155 34.4193 45.563 33.3218C47.21 32.2241 48.4946 30.6625 49.2534 28.8344C50.0122 27.0063 50.2119 24.9941 49.8262 23.0527C49.4409 21.1112 48.4878 19.3279 47.0884 17.9283C45.6885 16.5288 43.9048 15.5762 41.9634 15.1912C40.022 14.806 38.0098 15.0057 36.1816 15.7649C34.354 16.5242 32.7925 17.8088 31.6953 19.4562C30.5977 21.1035 30.0142 23.0394 30.0176 25.0187C30.0254 27.6638 31.0801 30.1982 32.9502 32.0685C34.8208 33.9386 37.3555 34.9926 40.0005 35Z" fill="#454950" fill-opacity="1.000000" fill-rule="nonzero"/>
		<path id="Vector" d="M40 35C38.0205 35 36.0854 34.4126 34.4404 33.312C32.7949 32.2115 31.5132 30.6476 30.7578 28.8181C30.002 26.9886 29.8062 24.9761 30.1948 23.0353C30.584 21.0945 31.54 19.3127 32.9424 17.9156C34.3447 16.5187 36.1299 15.5692 38.0723 15.1876C40.0142 14.806 42.0264 15.0094 43.853 15.772C45.6792 16.5347 47.2388 17.8223 48.333 19.4717C49.4272 21.1211 50.0073 23.0581 50 25.0375C49.9868 27.6821 48.9277 30.2141 47.0542 32.0807C45.1807 33.9473 42.6445 34.9967 40 35Z" fill="#FEFEFE" fill-opacity="1.000000" fill-rule="nonzero"/>
	</g>
</svg>
